<svg id="Layer_1" data-name="Layer 1" xmlns="http://www.w3.org/2000/svg" xmlns:xlink="http://www.w3.org/1999/xlink" viewBox="0 0 128 128"><defs><clipPath id="clip-path"><rect width="128" height="128" rx="63.9999" style="fill:#385369;stroke:#000;stroke-miterlimit:10;stroke-width:0.1px"/></clipPath></defs><rect width="128" height="128" rx="63.9999" style="fill:#385369"/><g style="clip-path:url(#clip-path)"><path d="M107.7857,16.767,77.9036,62.1662l-5.4151-3.67c2.2594-3.4326.02-8.953,3.46-13.1871s28.5331-30.4617,30.0729-32.14S108.5875,15.5489,107.7857,16.767Z" style="fill:#fff"/><path d="M14.8086,57.0228l54.258,3.1791-.47,6.5244c-4.1025-.24-7.7637,4.4591-13.15,3.5975s-40.647-9.48-42.8706-9.9738S13.3529,56.9376,14.8086,57.0228Z" style="fill:#fff"/><path d="M96.16,117.4155,71.784,68.8371,77.67,65.9823c1.843,3.673,7.7434,4.494,9.6906,9.59s12.114,39.9412,12.7977,42.114S96.8138,118.7188,96.16,117.4155Z" style="fill:#fff"/><circle cx="72.9181" cy="63.7351" r="6.2137" style="fill:#fff"/><polygon points="77.641 173.138 67.773 173.138 70.447 64.625 74.967 64.625 77.641 173.138" style="fill:#fff"/></g><rect width="128" height="128" rx="63.9999" style="fill:none;stroke:#000;stroke-miterlimit:10;stroke-width:0.1px"/></svg>