<svg width="279" height="36" viewBox="0 0 279 36" fill="none" xmlns="http://www.w3.org/2000/svg">
<path d="M20.9524 3.7175C20.9524 0.7435 18.0773 0 15.8075 0V0.4461C17.1694 0.4461 18.2286 0.8922 18.2286 1.9331C18.2286 2.5279 17.7747 3.4201 16.4128 3.4201C15.3536 3.4201 13.0838 2.8253 11.4193 2.2305C9.45211 1.487 7.63628 0.8922 6.12308 0.8922C3.0967 0.8922 0.978228 3.1227 0.978228 5.6506C0.978228 7.8811 2.64274 8.6246 3.24802 8.922L3.39934 8.6246C3.0967 8.3272 2.64274 8.0298 2.64274 7.1376C2.64274 6.5428 3.24802 5.5019 4.76121 5.5019C6.12308 5.5019 7.93891 6.0967 10.36 6.8402C12.4785 7.435 14.7483 7.8811 15.9588 8.0298V12.6395L13.689 14.5726V14.7213L15.9588 16.6544V23.0485C14.7483 23.792 13.3864 23.9407 12.1759 23.9407C9.90606 23.9407 7.93891 23.3459 6.2744 21.5615L12.4785 18.5875V8.3272L4.91253 11.5986C5.51781 9.6655 7.18232 8.3272 8.84683 7.435L8.69551 6.9889C4.15593 8.1785 0.0703125 12.3421 0.0703125 17.3979C0.0703125 23.3459 5.06385 27.8069 10.6627 27.8069C16.7154 27.8069 20.6497 23.0485 20.6497 18.1414H20.3471C19.4392 20.0745 18.0773 21.8589 16.4128 22.7511V16.6544L18.8339 14.7213V14.5726L16.4128 12.6395V8.0298C18.6826 8.0298 20.9524 6.5428 20.9524 3.7175ZM7.78759 20.0745L5.97176 20.9667C4.91253 19.6284 4.30725 17.844 4.30725 15.3161C4.30725 14.2752 4.30725 13.0856 4.60989 12.1934L7.78759 10.8551V20.0745ZM23.8274 23.4946L21.8603 24.9816L22.1629 25.279L23.0708 24.5355L26.3999 27.5095L30.9394 24.5355L30.7881 24.2381L29.5776 24.9816L28.0644 23.4946V13.383L29.2749 12.4908L31.8474 14.5726V23.6433C31.8474 29.2939 30.6368 30.1861 28.0644 31.0783V31.5244C32.3013 31.6731 36.2356 30.3348 36.2356 23.0485V13.2343L37.5975 12.1934L37.2949 11.896L36.0843 12.7882L32.3013 9.6655L28.0644 12.7882V0.5948H27.7617L22.4656 4.1636V4.461C23.0708 4.7584 23.9788 5.0558 23.9788 6.6915L23.8274 23.4946ZM51.5189 21.8589L47.7359 24.6842L43.9529 21.7102V19.9258L51.0649 15.1674V15.0187L47.4332 9.6655L39.5646 13.8291V23.6433L38.0514 24.8329L38.3541 25.1303L39.716 24.0894L44.8608 27.8069L51.6702 22.4537L51.5189 21.8589ZM43.9529 19.331V12.0447L44.2555 11.896L47.5846 17.1005L43.9529 19.331ZM80.4208 2.3792C80.4208 1.9331 80.2695 1.487 80.1182 1.0409H79.8156C79.3616 2.2305 78.7563 2.8253 77.2431 2.8253C75.8813 2.8253 74.9733 2.0818 74.3681 1.487L69.9798 6.3941L70.2825 6.6915L71.7956 5.3532C72.7036 6.0967 73.4602 6.6915 75.5786 6.8402V19.1823L66.6508 4.1636C65.8942 2.974 64.835 1.3383 62.7165 1.3383C60.2954 1.3383 58.1769 3.4201 58.4795 6.6915H58.9335C59.0848 5.7993 59.5388 4.7584 60.598 4.7584C61.3546 4.7584 62.1112 5.5019 62.5652 6.2454V11.1525C59.8414 11.1525 58.0256 12.3421 58.0256 14.5726C58.0256 15.7622 58.6309 17.5466 60.4467 17.9927V17.6953C60.1441 17.3979 59.9927 17.1005 59.9927 16.6544C59.9927 15.9109 60.598 15.3161 61.6573 15.3161H62.4139V21.5615C59.2361 21.5615 56.6637 23.3459 56.6637 26.3199C56.6637 29.1452 59.0848 30.4835 61.8086 30.3348V30.0374C60.1441 29.8887 59.3875 29.1452 59.3875 28.1043C59.3875 26.766 60.2954 26.1712 61.5059 26.1712C62.7165 26.1712 63.7757 26.9147 64.5323 27.8069L68.9206 23.0485L68.6179 22.7511L67.5587 23.9407C65.8942 22.4537 64.9863 22.0076 63.0191 21.7102V6.8402L75.1247 27.6582H76.0326V6.8402C78.3024 6.6915 80.4208 4.9071 80.4208 2.3792ZM91.4671 21.8589L87.6842 24.6842L83.9012 21.7102V19.9258L91.0132 15.1674V15.0187L87.3815 9.6655L79.5129 13.8291V23.6433L77.9997 24.8329L78.3024 25.1303L79.6642 24.0894L84.8091 27.8069L91.6185 22.4537L91.4671 21.8589ZM83.9012 19.331V12.0447L84.2038 11.896L87.5328 17.1005L83.9012 19.331ZM116.132 11.3012L115.073 12.0447L112.198 9.6655L108.869 12.6395L110.231 13.9778V25.1303L106.599 22.8998V13.6804L107.81 12.9369L104.329 9.6655L101 12.6395L102.362 13.9778V24.6842L101.908 24.9816L98.7305 22.7511V13.8291C98.7305 11.7473 97.6712 11.1525 96.4607 10.409C95.4015 9.6655 94.7962 9.2194 94.7962 8.1785C94.7962 7.2863 95.7041 6.8402 96.158 6.5428V6.2454C94.9475 6.2454 91.7698 7.435 91.7698 10.2603C91.7698 11.7473 92.5264 12.3421 93.283 13.0856C94.0396 13.8291 94.7962 14.4239 94.7962 15.7622V24.3868L93.1317 25.5764L93.4343 25.8738L94.9475 24.6842L98.4278 27.6582L102.211 25.1303L106.448 27.6582L114.468 23.0485V13.0856L116.435 11.5986L116.132 11.3012ZM144.278 3.1227L142.764 4.461L139.435 1.487L134.442 5.0558V1.7844H133.988L134.139 25.8738C133.685 25.8738 132.323 25.5764 131.264 25.279L130.961 5.2045C130.961 3.7175 129.902 1.6357 127.178 1.6357C124.455 1.6357 122.639 3.7175 122.639 5.7993H123.093C123.244 4.9071 123.698 4.1636 124.606 4.1636C125.514 4.1636 126.271 4.7584 126.271 6.6915V12.4908C123.547 12.6395 121.882 14.1265 121.882 16.0596C121.882 17.2492 122.488 19.0336 124.303 19.0336V18.7362C123.698 18.4388 123.547 17.9927 123.547 17.6953C123.547 16.8031 124.303 16.5057 125.514 16.5057H126.119V25.7251C123.849 26.4686 122.942 28.1043 122.942 29.8887C122.942 32.4166 124.909 34.201 127.935 34.201C130.054 34.201 131.869 33.9036 133.685 33.4575C135.198 33.1601 137.166 32.714 138.073 32.714C139.284 32.714 139.738 33.3088 139.738 34.0523C139.738 35.0932 139.284 35.5393 138.679 35.688V35.9854C141.1 35.5393 142.613 34.0523 142.613 31.8218C142.613 29.5913 140.343 28.253 137.922 28.253C136.712 28.253 134.139 28.6991 132.323 28.9965C130.205 29.4426 128.086 29.74 127.481 29.74C126.422 29.74 125.211 29.2939 125.211 27.8069C125.211 26.6173 126.271 25.5764 128.843 25.5764C130.205 25.5764 131.869 25.7251 133.534 26.1712C135.35 26.6173 137.014 27.0634 138.527 27.0634C140.797 27.0634 142.764 26.3199 142.764 23.1972V4.9071L144.58 3.4201L144.278 3.1227ZM138.073 12.1934C137.62 12.6395 137.014 13.0856 136.258 13.0856C135.501 13.0856 134.744 12.6395 134.442 12.1934V5.6506L135.955 4.6097L138.073 6.5428V12.1934ZM138.073 16.6544C137.771 16.357 137.014 15.9109 136.258 15.9109C135.501 15.9109 134.744 16.357 134.442 16.6544V12.7882C134.744 13.0856 135.501 13.5317 136.258 13.5317C137.014 13.5317 137.771 13.0856 138.073 12.7882V16.6544ZM138.073 23.6433C138.073 24.8329 137.317 26.0225 135.652 26.0225H134.442V17.2492C134.744 16.9518 135.501 16.5057 136.258 16.5057C137.014 16.5057 137.62 16.9518 138.073 17.2492V23.6433ZM158.804 13.0856L153.962 9.6655L146.547 13.8291V23.4946L145.034 24.6842L145.185 24.9816L146.396 24.0894L151.238 27.6582L158.804 23.1972V13.0856ZM150.633 22.4537V11.7473L154.416 14.4239V24.9816L150.633 22.4537ZM173.18 9.9629H172.877C172.423 10.2603 171.969 10.5577 171.515 10.5577C170.91 10.5577 170.153 10.2603 169.851 9.8142H169.548L166.975 12.6395L164.403 9.8142L159.863 12.7882L160.015 13.0856L161.225 12.3421L162.739 13.9778V23.3459L160.771 24.8329L161.074 25.1303L161.982 24.3868L165.614 27.3608L170.304 24.2381L170.153 23.9407L168.791 24.6842L166.975 23.1972V12.7882C167.732 13.5317 168.64 14.2752 169.699 14.2752C171.818 14.4239 173.028 12.3421 173.18 9.9629ZM191.338 24.2381L186.193 27.6582L179.232 17.2492L184.226 9.6655H184.529C185.134 10.2603 186.042 10.8551 187.101 10.8551C188.16 10.8551 188.917 10.2603 189.371 9.6655H189.673C189.522 12.6395 187.404 14.4239 185.89 14.4239C184.377 14.4239 183.621 13.6804 182.713 13.2343L182.259 13.9778L189.825 24.9816L191.338 24.0894V24.2381ZM174.693 23.4946L172.726 24.9816L173.028 25.279L173.936 24.5355L177.265 27.5095L181.805 24.5355L181.502 24.2381L180.292 24.9816L178.778 23.4946V0.5948H178.627L173.18 4.1636V4.461C173.785 4.7584 174.693 4.9071 174.693 6.6915V23.4946ZM216.457 3.7175C216.457 0.7435 213.582 0 211.312 0V0.4461C212.674 0.4461 213.733 0.8922 213.733 1.9331C213.733 2.5279 213.279 3.4201 211.917 3.4201C210.858 3.4201 208.588 2.8253 206.924 2.2305C204.957 1.6357 203.141 1.0409 201.628 1.0409C198.601 1.0409 196.483 3.2714 196.483 5.7993C196.483 8.0298 198.147 8.7733 198.753 9.0707L198.904 8.7733C198.45 8.4759 197.996 8.1785 197.996 7.2863C197.996 6.6915 198.601 5.6506 200.114 5.6506C201.476 5.6506 203.292 6.2454 205.713 6.9889C207.832 7.5837 210.101 8.0298 211.312 8.1785V12.7882L209.042 14.7213V14.87L211.312 16.8031V23.1972C210.101 23.9407 208.74 24.0894 207.529 24.0894C205.259 24.0894 203.292 23.4946 201.628 21.7102L207.832 18.7362V8.3272L200.266 11.5986C201.022 9.6655 202.687 8.3272 204.2 7.2863L204.049 6.9889C199.509 8.1785 195.423 12.1934 195.423 17.2492C195.423 23.1972 200.417 27.6582 206.016 27.6582C212.069 27.6582 216.003 22.8998 216.003 17.9927H215.7C214.792 19.9258 213.43 21.7102 211.766 22.6024V16.5057L214.187 14.5726V14.4239L211.917 12.4908V8.0298C214.187 8.0298 216.457 6.5428 216.457 3.7175ZM203.292 20.0745L201.476 20.9667C200.417 19.6284 199.812 17.844 199.812 15.3161C199.812 14.2752 199.963 13.0856 200.266 12.1934L203.443 10.8551L203.292 20.0745ZM221.753 2.2305H221.602L218.575 4.7584V4.9071L221.148 7.7324H221.45L224.477 5.2045V5.0558L221.753 2.2305ZM226.293 24.2381L225.082 24.9816L223.569 23.4946V13.2343L225.082 12.1934L224.779 11.896L223.72 12.7882L220.996 9.6655L216.608 12.6395L216.911 13.0856L217.97 12.3421L219.332 13.9778V23.6433L217.365 25.1303L217.516 25.4277L218.575 24.6842L221.904 27.6582L226.444 24.6842L226.293 24.2381ZM251.563 24.0894L250.504 24.8329L248.839 23.3459V13.2343L250.352 12.0447L250.05 11.7473L248.839 12.7882L245.359 9.6655L240.819 12.7882L237.339 9.6655L233.102 12.7882L230.378 9.6655L225.99 12.6395L226.141 13.0856L227.201 12.3421L228.714 13.9778V23.6433L227.503 24.8329L230.984 27.6582L234.313 24.6842L232.951 23.3459V13.2343L234.313 12.3421L236.582 14.4239V23.3459L235.372 24.5355L238.852 27.3608L242.181 24.3868L240.819 23.0485V13.2343L242.03 12.4908L244.451 14.5726V23.4946L243.392 24.5355L246.872 27.6582L251.563 24.5355V24.0894ZM264.728 21.8589L260.945 24.6842L257.162 21.7102V19.9258L264.274 15.1674V15.0187L260.642 9.6655L252.773 13.8291V23.9407L258.07 27.6582L264.879 22.305L264.728 21.8589ZM257.162 19.331V12.0447L257.464 11.896L260.793 17.1005L257.162 19.331ZM278.498 17.9927L275.623 15.7622C277.59 14.1265 278.346 11.896 278.346 10.409V9.5168H278.044C277.741 10.2603 277.136 11.0038 275.925 11.0038C274.715 11.0038 273.958 10.409 273.202 9.5168L266.392 13.2343V18.5875L268.965 20.5206C266.392 22.7511 265.938 24.2381 265.938 25.4277C265.938 26.9147 266.695 27.9556 267.905 28.4017L268.057 28.1043C267.754 27.8069 267.451 27.6582 267.451 26.9147C267.451 26.4686 268.057 25.7251 269.267 25.7251C270.78 25.7251 271.688 26.766 272.142 27.2121L278.649 23.3459V17.9927H278.498ZM276.833 13.5317C275.774 15.3161 273.504 17.1005 272.142 17.9927L270.478 16.6544V11.4499C271.083 12.9369 272.748 14.1265 274.412 14.1265C275.471 14.1265 276.077 13.9778 276.833 13.5317ZM274.261 25.4277C273.504 23.792 271.688 22.6024 269.873 22.6024C269.419 22.6024 268.208 22.6024 266.997 23.3459C267.754 22.1563 269.721 20.0745 272.294 18.5875L274.109 20.0745L274.261 25.4277Z" fill="white"/>
</svg>
