<svg width="208" height="57" viewBox="0 0 208 57" fill="none" xmlns="http://www.w3.org/2000/svg">
<path d="M11.7695 46.6099C14.8375 50.3859 18.2594 53.8078 22.1534 56.7578C26.0473 53.8078 29.5873 50.5039 32.5372 46.6099L22.2714 36.5801L11.7695 46.6099Z" fill="#ED6D0B"/>
<path d="M6.93035 39.412L22.2701 24.7803L37.6099 39.53C40.2059 34.9281 42.0938 29.9722 43.2738 24.7803C43.2738 24.5443 43.3918 24.3083 43.3918 24.0723H1.14844C2.21042 29.3822 4.21639 34.5741 6.93035 39.412Z" fill="#ED6D0B"/>
<path d="M6.92969 39.4111C8.34567 42.007 9.99764 44.367 11.7676 46.727L22.1515 36.5791L32.6533 46.727C34.4233 44.485 36.0753 42.007 37.4912 39.5291L22.2695 24.7793L6.92969 39.4111Z" fill="#ED6D0B"/>
<path d="M22.2698 36.2255L11.7679 46.3733C9.99797 44.1313 8.464 41.8894 7.16602 39.4114L22.1518 25.0156L37.2556 39.5294C35.8396 42.0074 34.3056 44.2493 32.6536 46.4913L22.2698 36.2255Z" fill="black"/>
<path d="M22.2695 25.2513L37.1372 39.5291C35.8393 41.771 34.3053 44.013 32.7713 46.137L22.6235 36.3431L22.3875 36.1071L22.1515 36.3431L11.8856 46.019C10.2336 43.895 8.81766 41.7711 7.51968 39.4111L22.2695 25.2513ZM22.2695 24.7793L6.92969 39.4111C8.34567 42.007 9.99764 44.367 11.7676 46.727L22.1515 36.5791L32.6533 46.727C34.4233 44.485 36.0753 42.007 37.4912 39.5291L22.2695 24.7793Z" fill="black"/>
<path d="M44.3365 8.25988C42.4485 8.84987 40.5605 9.08587 38.6726 9.08587C31.9467 9.08587 25.8107 5.66392 22.2708 0C18.7309 5.66392 12.5949 9.20386 5.86904 9.08587C3.98107 9.08587 1.9751 8.84987 0.205123 8.25988C-0.26687 13.4518 0.0871245 18.7617 1.14911 23.9536H43.3925C44.4545 18.7617 44.6905 13.5698 44.3365 8.25988Z" fill="black"/>
<path d="M32.6552 14.7498V12.9798H31.5932V11.6818L30.4133 11.3279H30.2953V10.2659C30.2953 10.2659 29.9413 10.7379 28.0533 10.7379C26.2833 10.7379 25.3393 10.1479 23.9234 10.1479C23.2154 10.0299 22.6254 10.3839 22.1534 10.8559V11.3279V10.9739C21.7994 10.3839 21.0914 10.1479 20.3834 10.2659C18.9674 10.2659 18.0234 10.8559 16.2535 10.8559C14.4835 10.8559 14.1295 10.3839 14.1295 10.3839V11.5638L12.9495 11.6818V12.9798H11.7695V14.7498H12.9495V17.6998H11.7695V19.4697H12.9495V21.7117C14.1295 21.8297 15.3095 21.9477 16.4895 21.9477C18.4954 21.9477 19.6754 21.7117 20.9734 21.5937V22.1837C21.3274 22.3017 21.7994 22.4197 22.1534 22.4197C22.6254 22.4197 22.9794 22.3017 23.4514 22.1837V21.5937C24.7493 21.5937 25.9293 21.9477 27.9353 21.9477C29.1153 21.9477 30.2953 21.8297 31.4752 21.7117V19.4697H32.5372V17.6998H31.4752V14.7498H32.6552Z" fill="white"/>
<path d="M30.5306 11.2099V9.79395L30.1766 10.1479C30.1766 10.1479 29.8226 10.5019 28.0527 10.5019L25.8107 10.1479L23.9227 9.91194C23.2147 9.91194 22.6247 10.1479 22.1528 10.6199C21.6808 10.1479 21.0908 9.91194 20.3828 9.91194L18.4948 10.1479L16.3708 10.6199C14.7189 10.6199 14.3649 10.2659 14.3649 10.2659L14.0109 9.79395V10.2659V11.2099L12.7129 11.4459V21.7118H12.8309C14.0109 21.9478 15.1909 21.9478 16.3708 21.9478C17.7868 21.9478 19.2028 21.8298 20.6188 21.5938V22.4198H20.7368C21.2088 22.6558 21.5628 22.6558 22.0348 22.6558C22.5067 22.6558 22.9787 22.5378 23.4507 22.4198H23.5687V21.9478C24.9847 22.0658 26.4007 22.1838 27.9347 22.3018C29.1147 22.3018 30.2946 22.1838 31.4746 22.0658H31.5926V11.5639L30.5306 11.2099ZM22.3888 11.0919C22.7427 10.6199 23.3327 10.3839 23.9227 10.3839L25.6927 10.6199L28.0527 10.9739C28.7607 10.9739 29.4686 10.8559 30.0586 10.6199V20.4138C29.3506 20.6498 28.7607 20.7678 28.0527 20.7678L25.8107 20.4138L23.9227 20.1778C23.3327 20.1778 22.8607 20.2958 22.3888 20.6498V11.0919ZM14.4829 10.7379C15.0729 10.9739 15.7808 11.0919 16.3708 11.0919L18.7308 10.7379L20.5008 10.5019C21.0908 10.3839 21.6808 10.7379 22.0348 11.2099V20.7678C21.5628 20.4138 20.9728 20.2958 20.5008 20.2958L18.6128 20.5318L16.3708 20.8858C14.7189 20.8858 14.3649 20.5318 14.3649 20.5318C14.3649 20.5318 14.3649 11.3279 14.4829 10.7379ZM31.3566 21.5938C30.2946 21.7118 29.1147 21.8298 28.0527 21.8298C26.5187 21.8298 25.1027 21.7118 23.5687 21.4758H23.3327V22.1838C22.9787 22.3018 22.6247 22.4198 22.2708 22.4198C21.9168 22.4198 21.5628 22.3018 21.2088 22.1838V21.4758H20.9728C19.4388 21.7118 18.0228 21.7118 16.4888 21.8298C15.3089 21.8298 14.2469 21.7118 13.0669 21.5938V11.9179C13.1849 11.9179 13.7749 11.7999 14.0109 11.6819V20.4138C14.1289 20.6498 14.4829 21.1218 16.3708 21.1218L18.7308 20.7678L20.5008 20.5318C21.0908 20.4138 21.6808 20.6498 22.0348 21.2398H22.3888C22.7427 20.7678 23.3327 20.5318 23.9227 20.5318L25.6927 20.7678L28.0527 21.1218C29.9406 21.1218 30.4126 20.6498 30.4126 20.5318V11.5639C30.6486 11.6819 31.1206 11.7999 31.2386 11.7999V21.5938H31.3566Z" fill="black"/>
<path d="M17.1969 12.3896C17.0789 12.3896 16.9609 12.5076 16.9609 12.6256L16.3709 14.0416C16.3709 14.0416 16.3709 14.0416 16.3709 13.9236C16.3709 13.9236 16.2529 13.6876 16.1349 13.3336L15.8989 12.8616C15.7809 12.7436 15.7809 12.6256 15.7809 12.5076C15.7809 12.3896 15.6629 12.3896 15.5449 12.3896H15.6629C15.7809 12.3896 15.8989 12.3896 16.0169 12.3896C16.1349 12.3896 16.2529 12.3896 16.3709 12.3896H16.4889C16.3709 12.3896 16.2529 12.3896 16.2529 12.5076V12.6256L16.6069 13.5696L16.9609 12.7436C16.9609 12.6256 16.9609 12.6256 16.9609 12.5076C16.9609 12.3896 16.8429 12.3896 16.7249 12.3896C16.8429 12.3896 16.8429 12.3896 17.0789 12.3896C17.0789 12.3896 17.1969 12.3896 17.3149 12.3896H17.1969Z" fill="black"/>
<path d="M18.8484 13.9238C18.3764 13.9238 18.1404 13.9238 18.0224 13.9238C18.0224 13.9238 17.9044 13.9238 17.7864 13.9238C17.6684 13.9238 17.5505 13.9238 17.4325 13.9238H17.3145C17.4325 13.9238 17.4325 13.9238 17.5504 13.9238C17.5504 13.8058 17.5504 13.8058 17.5504 13.6878C17.5504 13.5698 17.5504 13.5698 17.5504 13.4518C17.5504 13.3338 17.5504 13.2158 17.5504 12.9798V12.7438C17.5504 12.6258 17.4325 12.6258 17.3145 12.5078H17.4325C17.5505 12.5078 17.6684 12.5078 17.9044 12.5078C18.1404 12.5078 18.4944 12.5078 18.4944 12.5078H18.6124V12.8618C18.6124 12.7438 18.4944 12.6258 18.3764 12.6258H18.2584C18.2584 12.6258 18.1404 12.6258 18.0224 12.6258C17.9044 12.6258 17.9044 12.6258 17.7864 12.6258C17.6684 12.6258 17.7864 12.6258 17.7864 12.7438C17.7864 12.7438 17.7864 12.8618 17.7864 13.0978V13.3338C17.9044 13.3338 17.9044 13.3338 18.0224 13.3338C18.1404 13.3338 18.1404 13.2158 18.1404 13.2158V13.0978C18.1404 13.2158 18.1404 13.3338 18.1404 13.4518C18.1404 13.5698 18.1404 13.6878 18.1404 13.8058C18.1404 13.6878 18.1404 13.5698 18.0224 13.5698C18.0224 13.5698 17.9044 13.5698 17.7864 13.5698H17.6684V14.0418C17.6684 14.1598 17.6684 14.1598 17.6684 14.2778C17.6684 14.2778 17.6684 14.3958 17.7864 14.3958H17.9044H18.1404C18.2584 14.3958 18.2584 14.3958 18.2584 14.3958C18.3764 14.2778 18.4944 14.1598 18.4944 14.0418L18.8484 13.9238C18.9664 13.9238 18.9664 13.9238 18.8484 13.9238Z" fill="black"/>
<path d="M20.8543 12.8616C20.7363 12.8616 20.7363 12.8616 20.8543 12.8616C20.7363 12.7436 20.7363 12.7436 20.7363 12.6256C20.6183 12.5076 20.5003 12.5076 20.3823 12.5076H20.2643V13.2156C20.2643 13.3336 20.2643 13.4516 20.2643 13.6876C20.2643 13.9236 20.3823 13.9236 20.5003 13.9236H20.3823C20.2643 13.9236 20.0283 13.9236 20.0283 13.9236H19.6743C19.9103 13.9236 19.9103 13.8056 19.9103 13.8056C19.9103 13.8056 19.9103 13.5696 19.9103 13.3336V12.7436C19.9103 12.6256 19.9103 12.6256 19.9103 12.5076C19.7923 12.5076 19.7923 12.5076 19.6743 12.5076C19.5563 12.6256 19.4383 12.7436 19.3203 12.8616V12.3896H19.4383C19.4383 12.3896 19.6743 12.3896 20.0283 12.3896C20.3823 12.3896 20.7363 12.3896 20.7363 12.3896H20.8543C20.8543 12.3896 20.8543 12.3896 20.8543 12.5076V12.8616Z" fill="black"/>
<path d="M17.0789 15.3402C16.9609 15.2222 16.9609 15.2222 16.9609 15.1042C16.8429 14.9862 16.7249 14.9862 16.6069 14.9862H16.4889V15.6942C16.4889 15.8122 16.4889 15.9301 16.4889 16.1661C16.4889 16.4021 16.6069 16.4021 16.7249 16.4021H16.6069C16.4889 16.4021 16.2529 16.4021 16.2529 16.4021C16.2529 16.4021 15.8989 16.4021 15.7809 16.4021C16.0169 16.4021 16.0169 16.2841 16.1349 16.2841C16.1349 16.2841 16.1349 16.0481 16.1349 15.8121V15.2222C16.1349 15.1042 16.1349 15.1042 16.1349 14.9862C16.0169 14.9862 16.0169 14.9862 15.8989 14.9862C15.7809 15.1042 15.6629 15.2222 15.5449 15.3402V14.8682H15.6629C15.7809 14.8682 16.0169 14.8682 16.2529 14.8682C16.6069 14.8682 16.9609 14.8682 16.9609 14.8682H17.0789C17.0789 14.8682 17.0789 14.8682 17.0789 14.9862V15.3402Z" fill="black"/>
<path d="M18.9676 16.5195C18.4956 16.5195 18.2596 16.5195 18.1416 16.5195C18.0236 16.5195 18.0236 16.5195 17.9056 16.5195C17.7876 16.5195 17.6696 16.5195 17.5516 16.5195H17.4336C17.5516 16.5195 17.5516 16.5195 17.6696 16.5195C17.6696 16.5195 17.6696 16.4015 17.6696 16.2835C17.6696 16.1655 17.6696 16.1655 17.6696 16.0475C17.6696 15.9295 17.6696 15.8115 17.6696 15.5755C17.6696 15.4575 17.6696 15.3395 17.6696 15.3395C17.6696 15.2215 17.5516 15.2215 17.4336 15.1035H17.5516C17.6696 15.1035 17.7876 15.1035 18.0236 15.1035C18.2596 15.1035 18.6136 15.1035 18.6136 15.1035H18.8496V15.4575C18.8496 15.3395 18.7316 15.2215 18.6136 15.2215H18.4956C18.4956 15.2215 18.3776 15.2215 18.2596 15.2215C18.1416 15.2215 18.1416 15.2215 18.0236 15.2215C17.9056 15.2215 18.0236 15.2215 18.0236 15.3395C18.0236 15.3395 18.0236 15.4575 18.0236 15.6935V15.9295C18.1416 15.9295 18.1416 15.9295 18.2596 15.9295C18.3776 15.9295 18.3776 15.8115 18.3776 15.8115V15.6935C18.3776 15.8115 18.3776 15.9295 18.3776 16.0475C18.3776 16.1655 18.3776 16.2835 18.3776 16.4015C18.3776 16.2835 18.3776 16.1655 18.2596 16.1655H18.1416H18.0236V16.6375C18.0236 16.7555 18.0236 16.7555 18.0236 16.8735C18.0236 16.8735 18.0236 16.9915 18.1416 16.9915H18.2596H18.4956H18.6136C18.7316 16.8735 18.8496 16.7555 18.8496 16.6375L18.9676 16.5195Z" fill="black"/>
<path d="M20.0283 16.52C19.9103 16.52 19.7923 16.52 19.6743 16.402C19.6743 16.402 19.6743 16.402 19.5563 16.402C19.5563 16.402 19.4383 16.402 19.4383 16.52H19.3203C19.3203 16.52 19.3203 16.402 19.3203 16.284V16.048C19.3203 16.048 19.3203 16.048 19.4383 16.048C19.4383 16.166 19.5563 16.284 19.5563 16.402C19.7923 16.402 19.9103 16.402 20.0283 16.52C20.1463 16.402 20.1463 16.402 20.2643 16.284C20.3823 16.284 20.3823 16.166 20.3823 16.048V15.93L20.2643 15.812C20.1463 15.812 19.9103 15.694 19.9103 15.694C19.7923 15.694 19.7923 15.576 19.6743 15.576C19.5563 15.458 19.5563 15.34 19.5563 15.222C19.5563 14.986 19.7923 14.75 20.0283 14.75C20.1463 14.75 20.2643 14.75 20.3823 14.868L20.5003 14.75H20.6183C20.6183 14.868 20.6183 14.868 20.6183 14.986V15.222C20.6183 15.222 20.6183 15.222 20.5003 15.222C20.5003 15.104 20.3823 14.986 20.3823 14.986C20.2643 14.868 20.1463 14.868 20.0283 14.868C19.9103 14.868 19.7923 14.986 19.7923 15.104C19.7923 15.222 19.9103 15.34 20.0283 15.34C20.1463 15.34 20.1463 15.34 20.2643 15.458C20.3823 15.458 20.3823 15.576 20.5003 15.576C20.6183 15.694 20.7363 15.812 20.7363 16.048C20.6183 16.284 20.3823 16.52 20.0283 16.52Z" fill="black"/>
<path d="M17.6687 18.9978C17.1968 18.9978 16.9608 18.9978 16.8428 18.9978C16.8428 18.9978 16.7248 18.9978 16.6068 18.9978C16.4888 18.9978 16.3708 18.9978 16.2528 18.9978H16.1348C16.2528 18.9978 16.2528 18.9978 16.3708 18.9978C16.3708 18.8798 16.3708 18.8798 16.3708 18.7618C16.3708 18.6438 16.3708 18.6438 16.3708 18.5259C16.3708 18.4079 16.3708 18.2899 16.3708 18.0539V17.6999C16.3708 17.5819 16.2528 17.5819 16.1348 17.4639H16.2528C16.3708 17.4639 16.4888 17.4639 16.7248 17.4639C16.9608 17.4639 17.3147 17.4639 17.3147 17.4639H17.4327V17.8179C17.4327 17.6999 17.3147 17.5819 17.1968 17.5819H17.0788C17.0788 17.5819 16.9608 17.5819 16.8428 17.5819C16.7248 17.5819 16.7248 17.5819 16.6068 17.5819C16.4888 17.5819 16.6068 17.5819 16.6068 17.6999C16.6068 17.6999 16.6068 17.8179 16.6068 18.0539V18.2899C16.7248 18.2899 16.7248 18.2899 16.8428 18.2899C16.9608 18.2899 16.9608 18.1719 16.9608 18.1719V18.0539C16.9608 18.1719 16.9608 18.2899 16.9608 18.4079C16.9608 18.5259 16.9608 18.6438 16.9608 18.7618C16.9608 18.6438 16.9608 18.5259 16.8428 18.5259C16.8428 18.5259 16.7248 18.5259 16.6068 18.5259H16.4888V18.9978C16.4888 19.1158 16.4888 19.1158 16.4888 19.2338C16.4888 19.2338 16.4888 19.3518 16.6068 19.3518H16.7248H16.9608C17.0788 19.3518 17.0788 19.3518 17.0788 19.3518C17.1968 19.2338 17.3147 19.1158 17.3147 18.9978H17.4327H17.6687C17.7867 18.9978 17.7867 18.9978 17.6687 18.9978Z" fill="black"/>
<path d="M20.0302 17.4639C19.9122 17.4639 19.6762 17.5819 19.6762 17.8179V18.6438C19.6762 18.6438 19.6762 18.8798 19.6762 18.9978C19.6762 18.9978 19.6762 18.9978 19.5582 18.9978L18.3782 17.8179V18.0539V18.5259C18.3782 18.5259 18.3782 18.6438 18.3782 18.7618C18.3782 18.8798 18.3782 18.8798 18.4962 18.8798C18.6142 18.8798 18.6142 18.9978 18.7322 18.9978H18.6142C18.4962 18.9978 18.3782 18.9978 18.2602 18.9978C18.1422 18.9978 18.1422 18.9978 18.0242 18.9978C18.1422 18.9978 18.2602 18.9978 18.2602 18.8798C18.2602 18.7618 18.2602 18.7618 18.2602 18.6438V18.0539C18.2602 17.9359 18.2602 17.9359 18.2602 17.8179C18.2602 17.6999 18.2602 17.6999 18.2602 17.6999C18.2602 17.6999 18.2602 17.5819 18.1422 17.5819C18.1422 17.5819 18.0242 17.4639 17.9062 17.4639C17.9062 17.4639 18.1422 17.4639 18.2602 17.4639H18.3782L19.2042 18.4079C19.3222 18.5259 19.3222 18.5259 19.4402 18.6438V17.9359C19.4402 17.8179 19.4402 17.8179 19.4402 17.6999C19.4402 17.5819 19.4402 17.5819 19.4402 17.5819L19.2042 17.4639C19.3222 17.4639 19.4402 17.4639 19.4402 17.4639C19.7942 17.4639 19.9122 17.4639 20.0302 17.4639Z" fill="black"/>
<path d="M25.456 12.3896C25.338 12.3896 25.102 12.5076 25.102 12.7436V13.5696C25.102 13.5696 25.102 13.8056 25.102 13.9236C25.102 13.9236 25.102 13.9236 24.984 13.9236L23.804 12.7436V12.9796V13.4516C23.804 13.4516 23.804 13.5696 23.804 13.6876C23.804 13.8056 23.804 13.8056 23.922 13.8056C24.04 13.8056 24.04 13.9236 24.158 13.9236H24.04C23.922 13.9236 23.804 13.9236 23.686 13.9236C23.568 13.9236 23.568 13.9236 23.45 13.9236C23.568 13.9236 23.686 13.9236 23.686 13.8056C23.686 13.6876 23.686 13.6876 23.686 13.5696V12.9796C23.686 12.8616 23.686 12.8616 23.686 12.7436C23.686 12.6256 23.686 12.6256 23.686 12.6256C23.686 12.6256 23.686 12.5076 23.568 12.5076C23.568 12.5076 23.45 12.3896 23.332 12.3896C23.332 12.3896 23.568 12.3896 23.686 12.3896H23.804L24.63 13.3336C24.748 13.4516 24.748 13.4516 24.866 13.5696V12.8616C24.866 12.7436 24.866 12.7436 24.866 12.6256C24.866 12.5076 24.866 12.5076 24.866 12.5076L24.63 12.3896C24.748 12.3896 24.866 12.3896 24.866 12.3896C25.22 12.3896 25.22 12.3896 25.456 12.3896Z" fill="black"/>
<path d="M27.1095 13.8056C26.7555 14.1596 26.2836 14.1596 25.9296 13.8056C25.5756 13.4516 25.5756 12.9796 25.9296 12.6256C26.0476 12.5076 26.2836 12.3896 26.5196 12.3896C26.6375 12.3896 26.8735 12.3896 26.9915 12.5076C27.2275 12.6256 27.3455 12.9796 27.3455 13.2156C27.3455 13.3336 27.2275 13.5696 27.1095 13.8056ZM26.8735 12.6256C26.7555 12.5076 26.6375 12.5076 26.5196 12.5076C26.4016 12.5076 26.2836 12.6256 26.1656 12.6256C26.0476 12.7436 26.0476 12.9796 26.0476 13.2156C26.0476 13.4516 26.0476 13.5696 26.1656 13.8056C26.2836 13.9236 26.4016 14.0416 26.5196 14.0416C26.6375 14.0416 26.7555 13.9236 26.8735 13.8056C26.9915 13.6876 26.9915 13.4516 26.9915 13.3336C26.9915 12.9796 26.9915 12.7436 26.8735 12.6256Z" fill="black"/>
<path d="M29.3512 12.3896C29.2332 12.3896 29.1152 12.5076 29.1152 12.6256L28.5252 14.0416C28.5252 14.0416 28.5252 14.0416 28.5252 13.9236C28.5252 13.9236 28.4072 13.6876 28.2892 13.3336L28.0532 12.8616C27.9352 12.7436 27.9352 12.6256 27.9352 12.5076C27.9352 12.3896 27.8172 12.3896 27.6992 12.3896H27.8172C27.9352 12.3896 28.0532 12.3896 28.1712 12.3896C28.2892 12.3896 28.4072 12.3896 28.5252 12.3896H28.6432C28.5252 12.3896 28.4072 12.3896 28.4072 12.5076V12.6256L28.7612 13.5696L29.1152 12.7436C29.1152 12.6256 29.1152 12.6256 29.1152 12.5076C29.1152 12.3896 28.9972 12.3896 28.8792 12.3896C28.9972 12.3896 28.9972 12.3896 29.2332 12.3896C29.1152 12.3896 29.2332 12.3896 29.3512 12.3896C29.4692 12.3896 29.4692 12.3896 29.3512 12.3896Z" fill="black"/>
<path d="M24.866 15.3402C24.748 15.3402 24.748 15.2222 24.748 15.1042C24.63 14.9862 24.512 14.9862 24.394 14.9862H24.276V15.6942C24.276 15.8122 24.276 15.9301 24.276 16.1661C24.276 16.4021 24.394 16.4021 24.512 16.4021H24.394C24.276 16.4021 24.04 16.4021 24.04 16.4021C24.04 16.4021 23.686 16.4021 23.568 16.4021C23.804 16.4021 23.804 16.2841 23.922 16.2841C23.922 16.2841 23.922 16.0481 23.922 15.8121V15.2222C23.922 15.1042 23.922 15.1042 23.922 14.9862C23.804 14.9862 23.804 14.9862 23.686 14.9862C23.568 15.1042 23.45 15.2222 23.332 15.3402V14.8682H23.45C23.568 14.8682 23.804 14.8682 24.04 14.8682C24.394 14.8682 24.748 14.8682 24.748 14.8682H24.866C24.866 14.8682 24.866 14.8682 24.866 14.9862V15.3402Z" fill="black"/>
<path d="M26.8727 16.5193H26.7547C26.6367 16.5193 26.6367 16.5193 26.5187 16.5193C26.4007 16.5193 26.1647 16.5193 26.0467 16.5193C26.1647 16.5193 26.2827 16.5193 26.2827 16.4013C26.2827 16.2833 26.2827 16.2833 26.2827 16.1653C26.2827 16.0473 26.1647 16.0473 26.1647 15.9293H25.6927C25.6927 16.0473 25.5747 16.1653 25.5747 16.2833V16.4013C25.5747 16.4013 25.5747 16.5193 25.8107 16.5193C25.6927 16.5193 25.6927 16.5193 25.5747 16.5193C25.4567 16.5193 25.3387 16.5193 25.2207 16.5193C25.3387 16.5193 25.3387 16.5193 25.4567 16.4013C25.5747 16.2833 25.5747 16.1653 25.6927 15.9293C25.8107 15.6933 25.9287 15.4573 25.9287 15.3393C26.0467 15.2213 26.0467 15.1034 26.0467 15.1034C26.0467 14.9854 26.1647 14.9854 26.1647 14.9854C26.1647 14.9854 26.1647 14.9854 26.2827 14.9854C26.2827 14.9854 26.2827 14.9854 26.4007 14.9854C26.4007 14.9854 26.4007 14.9854 26.4007 15.1034C26.5187 15.3393 26.5187 15.5753 26.6367 15.8113C26.7547 15.9293 26.7547 16.0473 26.7547 16.1653C26.7547 16.2833 26.8727 16.2833 26.8727 16.4013C26.6367 16.4013 26.7547 16.4013 26.8727 16.5193C26.8727 16.4013 26.8727 16.4013 26.8727 16.5193ZM25.8107 15.2213C25.8107 15.3393 25.6927 15.4573 25.6927 15.4573C25.5747 15.6933 25.5747 15.6933 25.5747 15.8113H26.0467C26.0467 15.6933 25.8107 15.3393 25.8107 15.2213Z" fill="black"/>
<path d="M29.351 16.5201H28.643H28.407H28.525C28.643 16.5201 28.643 16.4021 28.643 16.2841V15.1042L28.289 15.8121C28.289 15.9301 28.171 15.9301 28.171 16.0481C28.171 16.1661 28.053 16.2841 28.053 16.4021C28.053 16.2841 27.935 16.2841 27.935 16.1661L27.345 14.9862V15.3402V16.0481C27.345 16.2841 27.463 16.4021 27.699 16.4021C27.699 16.4021 27.699 16.4021 27.581 16.4021C27.463 16.4021 27.463 16.4021 27.227 16.4021C27.227 16.4021 27.109 16.4021 26.991 16.4021H26.873C26.991 16.4021 26.991 16.4021 27.109 16.2841C27.109 16.2841 27.227 16.1661 27.227 16.0481V15.2222C27.227 15.1042 27.227 14.9862 27.109 14.9862C26.991 14.9862 26.991 14.9862 26.873 14.9862C26.991 14.9862 26.991 14.9862 27.109 14.9862H27.463L27.935 16.0481L28.053 15.8121C28.171 15.6942 28.289 15.3402 28.407 15.1042C28.407 14.9862 28.525 14.9862 28.525 14.8682H29.115C28.997 14.8682 28.879 14.8682 28.879 14.9862C28.879 14.9862 28.879 15.1042 28.879 15.2222V16.0481C28.879 16.4021 28.997 16.4021 28.997 16.4021C29.233 16.4021 29.233 16.4021 29.351 16.5201C29.351 16.4021 29.351 16.4021 29.351 16.5201Z" fill="black"/>
<path d="M24.8668 17.9357C24.7488 17.8177 24.7488 17.8177 24.6308 17.6997C24.5128 17.5817 24.3948 17.5817 24.2768 17.5817H24.1588V18.2897C24.1588 18.4077 24.1588 18.5257 24.1588 18.7617C24.1588 18.9977 24.2768 18.9977 24.3948 18.9977H24.2768C24.1588 18.9977 23.9228 18.9977 23.9228 18.9977C23.9228 18.9977 23.5688 18.9977 23.4508 18.9977C23.6868 18.9977 23.6868 18.8797 23.8048 18.8797C23.8048 18.8797 23.8048 18.6437 23.8048 18.4077V17.6997C23.8048 17.5817 23.8048 17.5817 23.8048 17.4637C23.6868 17.4637 23.6868 17.4637 23.5688 17.4637C23.4508 17.5817 23.3328 17.6997 23.2148 17.8177V17.3457H23.3328C23.4508 17.3457 23.6868 17.3457 23.9228 17.3457C24.2768 17.3457 24.6308 17.3457 24.6308 17.3457H24.7488C24.7488 17.3457 24.7488 17.3457 24.7488 17.4637L24.8668 17.9357Z" fill="black"/>
<path d="M26.8735 17.4639C26.7555 17.4639 26.6375 17.5819 26.6375 17.6999L25.9295 19.1158C25.9295 19.1158 25.9295 19.1158 25.9295 18.9978C25.9295 18.8798 25.8115 18.7618 25.6935 18.4079L25.4575 17.9359C25.3395 17.8179 25.3395 17.6999 25.3395 17.5819C25.3395 17.4639 25.2215 17.4639 25.1035 17.4639H25.2215C25.3395 17.4639 25.4575 17.4639 25.5755 17.4639C25.6935 17.4639 25.8115 17.4639 25.9295 17.4639H26.0475C25.9295 17.4639 25.8115 17.4639 25.8115 17.5819V17.6999L26.1655 18.6438L26.5195 17.8179C26.5195 17.6999 26.5195 17.6999 26.5195 17.5819C26.5195 17.4639 26.4015 17.4639 26.2835 17.4639C26.4015 17.4639 26.4015 17.4639 26.6375 17.4639C26.5195 17.4639 26.6375 17.4639 26.8735 17.4639Z" fill="black"/>
<path d="M29.351 18.9977H28.643H28.407H28.525C28.643 18.9977 28.643 18.8797 28.643 18.7617V17.8177C28.643 17.8177 28.643 17.6997 28.643 17.5817L28.289 18.2897C28.289 18.4077 28.171 18.4077 28.171 18.5257C28.053 18.6437 28.053 18.8797 28.053 18.8797C28.053 18.7617 27.935 18.7617 27.935 18.6437L27.345 17.4637V17.8177V18.5257C27.345 18.7617 27.463 18.8797 27.699 18.8797C27.699 18.8797 27.699 18.8797 27.581 18.8797C27.581 18.8797 27.463 18.8797 27.227 18.8797C27.227 18.8797 27.109 18.8797 26.991 18.8797H26.873C26.991 18.8797 26.991 18.8797 27.109 18.7617C27.109 18.6437 27.227 18.6437 27.227 18.5257V18.1717V17.6997C27.227 17.5817 27.227 17.4637 27.109 17.4637C26.991 17.4637 26.991 17.4637 26.873 17.4637C26.991 17.4637 26.991 17.4637 27.109 17.4637H27.463L27.935 18.5257L28.053 18.2897C28.171 18.0537 28.289 17.8177 28.407 17.5817C28.407 17.4637 28.525 17.4637 28.525 17.3457H29.115C28.997 17.3457 28.879 17.3457 28.879 17.4637C28.879 17.4637 28.879 17.5817 28.879 17.6997V18.5257C28.879 18.8797 28.997 18.8797 28.997 18.8797C29.233 18.8797 29.351 18.9977 29.351 18.9977Z" fill="black"/>
<path d="M207.528 9.32201C207.528 9.20401 207.528 9.08601 207.41 9.08601H206.938C205.876 9.08601 205.168 9.08601 203.398 9.08601C202.808 9.08601 201.746 9.08601 201.51 9.08601H200.92C200.802 9.08601 200.802 9.32201 200.802 9.44001C200.802 9.55801 200.802 9.67601 200.92 9.794C201.628 9.912 202.336 10.148 203.044 10.384C203.398 10.974 203.634 11.8 203.634 12.508C203.634 12.862 203.634 13.098 203.634 14.0419V18.4079C203.634 18.7619 203.634 18.9979 203.634 19.3519C203.28 18.9979 202.808 18.1719 201.982 17.2279L195.138 9.44001C195.02 9.32201 194.902 9.20401 194.784 9.20401C194.666 9.20401 194.312 9.20401 194.194 9.20401C192.896 9.20401 190.418 9.08601 190.064 9.08601C190.064 9.20401 189.946 9.32201 189.946 9.32201C189.946 9.44001 189.946 9.55801 190.064 9.67601C190.654 9.794 191.244 10.03 191.598 10.502C192.07 10.856 192.424 11.328 192.66 11.8C192.778 12.036 192.778 12.272 192.778 12.508C192.778 13.5699 192.66 15.1039 192.66 16.6379V20.8858C192.66 21.4758 192.66 21.9478 192.542 22.4198C191.952 23.0098 191.126 23.3638 190.3 23.4818C190.3 23.5998 190.182 23.7178 190.182 23.8358C190.182 23.9538 190.182 24.0718 190.3 24.0718H190.654C191.126 24.0718 192.07 23.9538 192.66 23.9538C193.604 23.9538 194.194 24.0718 195.02 24.0718H196.318C196.436 24.0718 196.436 23.8358 196.436 23.7178C196.436 23.5998 196.436 23.4818 196.318 23.3638C195.374 23.2458 194.43 22.7738 193.84 22.0658C193.604 21.2398 193.604 20.2958 193.604 19.4699C193.604 18.7619 193.604 17.9359 193.604 16.6379C193.604 14.9859 193.604 13.5699 193.604 12.862C193.722 12.98 193.84 13.216 193.958 13.334L203.634 24.1898C203.87 24.3078 203.988 24.3078 204.224 24.3078C204.342 24.3078 204.342 24.3078 204.46 24.3078C204.578 23.9538 204.696 23.7178 204.696 23.3638C204.696 22.7738 204.696 22.1838 204.696 21.8298V13.098C204.696 10.502 205.876 9.794 207.41 9.67601C207.528 9.55801 207.528 9.44001 207.528 9.32201ZM183.575 15.9299C183.575 19.1159 182.749 21.8298 181.451 22.8918C180.861 23.3638 180.035 23.7178 179.209 23.5998C178.147 23.5998 177.085 23.1278 176.377 22.1838C175.551 20.5318 175.079 18.6439 175.197 16.7559C175.197 13.8059 175.905 11.564 177.321 10.502C177.911 10.03 178.737 9.67601 179.445 9.67601C180.625 9.67601 181.687 10.148 182.277 11.092C183.221 12.272 183.575 13.8059 183.575 15.9299ZM187.351 16.4019C187.469 13.6879 186.053 11.21 183.575 9.912C182.395 9.20401 180.979 8.85002 179.563 8.85002C176.731 8.85002 174.017 10.384 172.483 12.744C171.657 14.0419 171.303 15.4579 171.303 16.9919C171.303 19.3519 172.365 21.5938 174.253 23.1278C175.669 24.1898 177.321 24.6618 178.973 24.6618C180.035 24.6618 181.097 24.4258 182.159 24.0718C183.221 23.5998 184.283 23.0098 185.109 22.0658C186.643 20.4138 187.469 18.4079 187.351 16.4019ZM169.061 13.6879V9.44001C169.061 9.08601 168.943 9.08601 168.589 9.08601C167.999 9.08601 164.695 9.20401 161.273 9.20401C158.677 9.20401 156.553 9.20401 155.373 9.20401H153.839C153.603 9.20401 153.485 9.32201 153.485 9.55801V13.5699C153.603 13.6879 153.721 13.6879 153.839 13.6879C153.957 13.6879 154.193 13.6879 154.311 13.6879C155.255 11.8 156.081 10.738 157.261 10.148C157.851 10.03 159.149 10.03 159.503 10.03C159.503 10.266 159.503 10.974 159.621 11.918C159.621 13.4519 159.621 14.0419 159.621 17.5819C159.621 20.6498 159.621 22.0658 159.503 22.4198C159.385 23.0098 159.503 23.4818 157.025 23.5998C157.025 23.7178 156.907 23.9538 156.907 24.0718C156.907 24.1898 156.907 24.3078 156.907 24.4258H157.733C158.559 24.4258 160.329 24.3078 161.037 24.3078C161.627 24.3078 163.633 24.4258 164.813 24.4258H165.403C165.403 24.3078 165.521 24.1898 165.521 23.9538C165.521 23.8358 165.521 23.7178 165.403 23.5998C164.695 23.5998 163.869 23.4818 163.279 23.2458C163.161 22.7738 163.043 22.1838 163.043 21.7118C163.043 19.4699 163.043 18.6439 163.043 17.1099C163.043 15.2219 163.043 13.8059 163.043 10.266C163.279 10.266 163.987 10.266 164.577 10.266C165.521 10.502 166.465 11.092 167.055 11.8C167.527 12.508 167.881 13.334 168.117 14.0419C168.235 14.0419 168.353 14.0419 168.471 14.0419C168.707 13.8059 168.825 13.8059 169.061 13.6879ZM151.007 20.5318C151.007 20.2958 151.007 20.1778 151.007 19.9419C150.889 19.9419 150.771 19.8239 150.653 19.8239C150.535 19.8239 150.299 19.8239 150.181 19.8239C149.709 21.0038 148.883 22.1838 147.939 23.0098C147.467 23.2458 146.877 23.2458 146.405 23.2458H144.635C144.163 23.2458 143.691 23.2458 143.219 23.1278C142.865 23.0098 142.629 22.5378 142.393 22.1838C142.157 21.8298 142.157 21.3578 142.157 20.8858V16.2839H142.983C143.455 16.2839 143.809 16.4019 144.281 16.5199C144.635 16.6379 144.989 16.9919 145.225 17.3459C145.461 17.9359 145.579 18.5259 145.579 19.1159C145.697 19.2339 145.933 19.2339 146.169 19.2339C146.287 19.2339 146.405 19.2339 146.641 19.1159C146.641 18.5259 146.523 16.9919 146.523 16.1659C146.523 15.1039 146.641 13.6879 146.759 12.98C146.641 12.862 146.523 12.862 146.287 12.862C146.051 12.862 145.933 12.862 145.697 12.98C145.579 13.216 145.461 14.1599 145.343 14.1599C144.989 14.6319 144.517 15.1039 143.927 15.2219C143.573 15.3399 143.101 15.3399 142.747 15.3399H142.275V13.4519C142.275 11.446 142.275 10.738 142.393 10.384C142.393 10.148 142.511 9.912 142.511 9.67601C142.983 9.67601 143.337 9.67601 143.809 9.67601C144.989 9.67601 145.579 9.67601 145.815 9.67601C146.287 9.67601 146.759 9.794 147.113 10.148C147.939 10.856 148.647 11.8 149.119 12.744C149.237 12.744 149.355 12.744 149.591 12.744C149.709 12.744 149.709 12.744 149.945 12.626C149.945 11.328 149.827 9.67601 149.827 9.20401C149.827 8.96802 149.709 8.96802 149.355 8.96802C149.237 8.96802 148.411 8.96802 147.585 8.96802C146.405 8.96802 145.933 8.96802 144.045 8.96802C143.101 8.96802 140.977 8.96802 140.151 8.96802C138.853 8.96802 137.791 8.96802 137.319 8.96802H136.611C136.493 9.08601 136.493 9.20401 136.493 9.32201C136.493 9.44001 136.493 9.55801 136.611 9.794C137.083 9.794 137.673 9.912 138.145 10.03C138.617 10.384 138.853 10.856 138.853 11.446C138.853 11.918 138.971 13.098 138.971 14.0419V18.4079C138.971 19.2339 138.971 20.5318 138.971 21.1218C138.971 21.8298 138.735 22.4198 138.499 23.1278C137.909 23.3638 137.201 23.4818 136.611 23.4818C136.493 23.5998 136.493 23.8358 136.493 23.9538C136.493 24.0718 136.493 24.1898 136.611 24.3078H137.319C138.027 24.3078 140.505 24.1898 140.977 24.1898C141.449 24.1898 142.511 24.1898 143.691 24.1898C144.399 24.1898 146.287 24.3078 150.535 24.3078C150.771 24.3078 150.889 24.3078 151.125 24.3078C151.125 24.1898 151.243 24.0718 151.243 23.9538C151.007 23.4818 151.007 22.1838 151.007 20.5318ZM133.307 21.2398C133.189 20.8858 132.953 20.7678 132.599 20.7678H132.481C131.183 22.5378 129.885 23.2458 128.233 23.2458C126.345 23.2458 124.693 22.1838 123.985 20.5318C123.513 19.3519 123.395 18.0539 123.395 16.7559C123.395 15.4579 123.513 14.2779 123.985 13.098C124.929 10.62 126.227 9.912 127.879 9.912C129.177 10.03 130.475 10.62 131.183 11.8C131.655 12.626 132.009 13.4519 132.245 14.2779C132.363 14.2779 132.599 14.2779 132.717 14.3959C132.953 14.3959 133.071 14.2779 133.189 14.1599C133.189 13.9239 132.953 12.272 132.953 11.8C132.953 11.21 133.071 10.148 133.071 9.794C132.835 9.67601 132.599 9.55801 132.245 9.55801C132.009 9.794 131.773 10.148 131.537 10.384C130.239 9.32201 128.587 8.85002 126.935 8.85002C124.929 8.73202 123.041 9.55801 121.743 10.974C120.21 12.508 119.384 14.6319 119.502 16.8739C119.384 19.3519 120.564 21.5938 122.451 23.1278C123.867 24.0718 125.637 24.5438 127.289 24.5438C129.885 24.5438 131.655 23.5998 132.599 22.3018C132.953 21.9478 133.189 21.5938 133.307 21.2398ZM117.024 9.32201C117.024 9.20401 117.024 9.08601 116.906 9.08601H116.434C115.372 9.08601 114.664 9.08601 112.894 9.08601C112.304 9.08601 111.242 9.08601 111.006 9.08601H110.416C110.298 9.08601 110.298 9.32201 110.298 9.44001C110.298 9.55801 110.298 9.67601 110.416 9.794C111.124 9.912 111.832 10.148 112.54 10.384C112.894 10.974 113.13 11.8 113.13 12.508C113.13 12.862 113.13 13.098 113.13 14.0419V18.4079C113.13 18.7619 113.13 18.9979 113.13 19.3519C112.776 18.9979 112.304 18.1719 111.478 17.2279L104.634 9.44001C104.516 9.32201 104.398 9.20401 104.28 9.20401C104.162 9.20401 103.808 9.20401 103.69 9.20401C102.392 9.20401 99.9138 9.08601 99.5598 9.08601C99.5598 9.20401 99.4418 9.32201 99.4418 9.32201C99.4418 9.44001 99.4418 9.55801 99.5598 9.67601C100.15 9.794 100.74 10.03 101.094 10.502C101.566 10.856 101.92 11.328 102.156 11.8C102.274 12.036 102.274 12.272 102.274 12.508C102.274 13.5699 102.156 15.1039 102.156 16.6379V20.8858C102.156 21.4758 102.156 21.9478 102.038 22.4198C101.448 23.0098 100.622 23.3638 99.7958 23.4818C99.7958 23.5998 99.6778 23.7178 99.6778 23.8358C99.6778 23.9538 99.6778 24.0718 99.7958 24.0718H100.268C100.74 24.0718 101.684 23.9538 102.274 23.9538C103.218 23.9538 103.808 24.0718 104.634 24.0718H105.932C106.05 24.0718 106.05 23.8358 106.05 23.7178C106.05 23.5998 106.05 23.4818 105.932 23.3638C104.988 23.2458 104.044 22.7738 103.454 22.0658C103.218 21.2398 103.218 20.2958 103.218 19.4699C103.218 18.7619 103.218 17.9359 103.218 16.6379C103.218 14.9859 103.218 13.5699 103.218 12.862C103.336 12.98 103.454 13.216 103.572 13.334L113.248 24.1898C113.484 24.3078 113.602 24.3078 113.838 24.3078C113.956 24.3078 113.956 24.3078 114.074 24.3078C114.192 23.9538 114.31 23.7178 114.31 23.3638C114.31 22.7738 114.31 22.1838 114.31 21.8298V13.098C114.31 10.502 115.49 9.794 117.024 9.67601C117.024 9.55801 117.024 9.44001 117.024 9.32201ZM96.3739 23.8358C96.3739 23.7178 96.3739 23.5998 96.2559 23.3638C95.7839 23.3638 95.1939 23.2458 94.7219 23.1278C94.3679 22.6558 94.1319 22.0658 94.0139 21.4758C94.0139 20.4138 94.0139 18.4079 94.0139 16.4019V11.446C94.0139 11.092 94.1319 10.62 94.3679 10.266C94.9579 9.912 95.5479 9.67601 96.2559 9.67601C96.2559 9.55801 96.3739 9.44001 96.3739 9.32201C96.3739 9.20401 96.3739 9.08601 96.2559 8.96802H95.5479C94.7219 8.96802 92.5979 9.08601 91.8899 9.08601C91.4179 9.08601 89.412 8.96802 88.468 8.96802H87.996C87.878 9.08601 87.878 9.20401 87.878 9.32201C87.878 9.44001 87.878 9.55801 87.878 9.67601C88.468 9.67601 88.94 9.794 89.53 10.03C90.002 10.502 90.238 11.092 90.238 11.8C90.238 12.154 90.238 13.098 90.356 14.9859C90.356 16.0479 90.356 17.4639 90.356 18.6439C90.356 19.2339 90.356 20.6498 90.238 21.3578C90.238 21.8298 90.12 22.1838 90.002 22.6558C89.766 22.8918 89.53 23.2458 87.996 23.3638C87.996 23.4818 87.878 23.5998 87.878 23.8358C87.878 23.9538 87.878 24.0718 87.878 24.1898H88.232C89.058 24.1898 91.1819 24.0718 92.2439 24.0718C92.5979 24.0718 94.7219 24.1898 95.4299 24.1898H96.1379C96.3739 24.0718 96.3739 23.9538 96.3739 23.8358ZM79.6181 12.862C79.6181 14.1599 78.7921 15.6939 77.7301 15.9299C77.1402 16.0479 76.5502 16.1659 75.9602 16.0479C75.7242 16.0479 75.4882 16.0479 75.1342 16.0479V14.2779V10.384C75.1342 10.266 75.1342 10.03 75.2522 9.912C75.4882 9.794 75.8422 9.794 76.0782 9.794C77.7301 9.794 78.4381 9.912 79.0281 10.974C79.3821 11.564 79.6181 12.272 79.6181 12.862ZM85.636 23.8358C85.636 23.7178 85.636 23.4818 85.518 23.3638C85.046 23.3638 84.574 23.2458 84.1021 23.1278C83.9841 23.0098 83.8661 22.7738 83.7481 22.6558C83.5121 21.8298 83.1581 21.0038 82.8041 20.2958C82.5681 19.2339 81.9781 18.4079 81.3881 17.6999C80.9161 17.3459 80.3261 17.2279 79.8541 16.9919C79.5001 16.8739 79.2641 16.7559 79.0281 16.6379C79.2641 16.5199 79.6181 16.5199 79.8541 16.5199C81.3881 16.2839 81.7421 16.0479 82.0961 15.6939C82.9221 15.1039 83.3941 14.0419 83.3941 12.98C83.3941 11.328 82.3321 9.794 80.7981 9.20401C79.9721 8.96802 79.1461 8.96802 78.3201 8.96802C76.7862 8.96802 74.5442 9.08601 73.4822 9.08601C73.1282 9.08601 71.3582 9.08601 70.6502 9.08601C70.2963 9.08601 69.5883 9.08601 69.4703 9.08601C69.4703 9.20401 69.3523 9.32201 69.3523 9.44001C69.3523 9.55801 69.3523 9.67601 69.3523 9.794C69.7063 9.794 70.4143 9.912 70.6502 10.03C71.0042 10.266 71.3582 10.738 71.4762 11.21C71.5942 12.98 71.5942 14.7499 71.5942 16.5199C71.5942 18.6439 71.5942 21.1218 71.4762 21.9478C71.4762 22.5378 71.1222 23.1278 70.6502 23.3638C70.2963 23.4818 69.8243 23.4818 69.4703 23.4818C69.3523 23.5998 69.3523 23.7178 69.3523 23.9538C69.3523 24.0718 69.3523 24.1898 69.4703 24.3078C69.8243 24.3078 73.0102 24.1898 73.6002 24.1898C74.8982 24.1898 76.0782 24.3078 77.2581 24.3078C77.2581 24.1898 77.3761 24.0718 77.3761 23.9538C77.3761 23.8358 77.3761 23.5998 77.2581 23.4818C76.7862 23.4818 76.3142 23.3638 76.0782 23.2458C75.4882 23.0098 75.1342 22.4198 75.1342 21.7118V16.8739C75.3702 16.8739 75.4882 16.8739 75.7242 16.8739C76.0782 16.8739 76.5502 16.9919 76.7862 17.2279C77.4941 17.5819 78.0841 18.0539 78.4381 18.7619C79.1461 20.1778 79.6181 21.7118 79.7361 23.2458C79.8541 23.7178 79.9721 24.0718 80.3261 24.0718C80.4441 24.0718 81.6241 24.1898 82.4501 24.1898H85.4C85.636 24.0718 85.636 23.9538 85.636 23.8358ZM62.9804 12.98C62.9804 13.9239 62.6264 14.8679 61.9184 15.5759C61.3284 16.0479 60.5024 16.1659 59.7944 16.1659C59.4404 16.1659 59.2044 16.1659 58.8504 16.1659C58.7324 16.1659 58.6144 16.1659 58.6144 16.0479V9.912C58.9684 9.794 59.4404 9.794 59.7944 9.794C61.2104 9.794 62.0364 10.148 62.5084 10.974C62.7444 11.564 62.9804 12.272 62.9804 12.98ZM66.6383 13.098C66.6383 11.564 65.8123 10.148 64.3963 9.44001C63.2164 9.08601 61.9184 8.85002 60.6204 8.96802C58.9684 8.96802 56.4905 9.08601 55.4285 9.08601C54.6025 9.08601 53.5405 8.96802 52.8325 8.96802C52.7145 9.08601 52.7145 9.20401 52.7145 9.32201C52.7145 9.44001 52.7145 9.55801 52.8325 9.794C53.1865 9.912 53.8945 10.03 54.2485 10.148C54.6025 10.502 54.8385 10.856 54.8385 11.328C54.9565 12.036 54.9565 12.98 54.9565 14.5139C54.9565 18.8799 54.9565 21.2398 54.8385 21.7118C54.7205 22.4198 54.2485 23.0098 53.6585 23.2458C53.3045 23.3638 52.8325 23.3638 52.4785 23.4818C52.4785 23.5998 52.4785 23.7178 52.4785 23.9538C52.4785 24.0718 52.4785 24.1898 52.5965 24.3078C53.3045 24.3078 55.1925 24.1898 56.0185 24.1898C57.9064 24.1898 59.7944 24.3078 60.5024 24.3078H60.9744C60.9744 24.1898 61.0924 24.0718 61.0924 23.9538C61.0924 23.8358 61.0924 23.7178 61.0924 23.5998C60.3844 23.5998 59.6764 23.3638 59.0864 22.8918C58.8504 22.5378 58.6144 22.0658 58.6144 21.7118L58.4964 17.1099C59.7944 17.2279 61.0924 17.2279 61.8004 17.2279C62.6264 17.2279 63.4524 17.1099 64.2783 16.8739C65.8123 16.1659 66.7563 14.6319 66.6383 13.098Z" fill="black"/>
<path d="M207.881 32.6859C207.881 32.5679 207.763 32.5679 207.763 32.4499C206.937 32.4499 205.757 32.5679 205.285 32.5679C204.223 32.5679 202.925 32.4499 202.336 32.4499C202.218 32.5679 202.217 32.5679 202.217 32.6859C202.217 32.8039 202.217 32.8039 202.217 32.9219C202.807 33.0399 203.751 33.1579 203.869 33.5118C203.987 33.7478 204.105 33.9838 204.105 34.3378C204.105 34.5738 204.105 34.8098 203.987 35.1638C203.751 35.6358 203.397 36.4618 202.807 37.6418C201.864 39.5298 201.274 40.8277 200.92 41.2997C200.33 40.3557 199.15 37.9958 198.914 37.2878L197.734 34.6918C197.734 34.4558 197.616 34.3378 197.616 34.1018C197.616 33.8658 197.616 33.7478 197.734 33.5118C197.97 33.1579 198.56 33.0399 199.504 33.0399C199.504 32.9219 199.622 32.8039 199.622 32.6859C199.622 32.5679 199.504 32.5679 199.504 32.4499H199.15C197.734 32.4499 198.206 32.5679 195.728 32.5679C194.666 32.5679 193.486 32.4499 193.25 32.4499C193.132 32.5679 193.132 32.5679 193.132 32.8039C193.132 32.9219 193.132 33.0399 193.25 33.0399C194.666 33.3939 195.02 33.6298 195.256 33.8658L198.914 41.0637C199.15 41.5357 199.386 42.1257 199.622 42.5977C199.74 43.4237 199.858 44.2497 199.74 45.0757C199.858 45.6657 199.504 46.2557 199.032 46.7277C198.442 46.8456 197.97 46.9636 197.38 46.9636C197.262 47.0816 197.262 47.1996 197.262 47.1996C197.262 47.3176 197.262 47.3176 197.38 47.4356C198.442 47.4356 199.504 47.4356 200.212 47.4356C200.684 47.4356 201.274 47.4356 202.572 47.4356C203.279 47.4356 203.869 47.4356 204.223 47.4356C204.223 47.3176 204.341 47.3176 204.341 47.1996C204.341 47.0816 204.341 46.9636 204.223 46.9636C203.633 46.9636 202.926 46.8457 202.454 46.4917C202.1 46.1377 201.864 45.6657 201.864 45.1937L201.746 42.0077C201.746 41.8897 201.746 41.6537 201.864 41.5357C201.864 41.2997 201.982 41.1817 202.1 40.9457L205.285 34.5738C205.639 33.9838 206.111 33.5118 206.583 33.1579C207.055 32.9219 207.527 32.8039 207.999 32.6859C207.881 32.8039 207.881 32.6859 207.881 32.6859ZM191.008 36.9338V32.9219C191.008 32.5679 190.89 32.5679 190.536 32.5679C189.946 32.5679 186.996 32.6859 183.692 32.6859C181.096 32.6859 179.326 32.6859 178.146 32.6859H176.612C176.376 32.6859 176.258 32.8039 176.258 33.0399V36.8158C176.376 36.8158 176.376 36.9338 176.494 36.9338C176.612 36.9338 176.612 36.9338 176.73 36.9338C177.556 35.1638 177.91 34.1018 179.326 33.3938C179.916 33.2759 182.158 33.2759 182.512 33.2759C182.512 33.5118 182.512 34.2198 182.63 35.1638C182.63 36.6978 182.63 37.5238 182.63 41.0637C182.63 44.1317 182.63 45.6657 182.512 46.0197C182.394 46.6097 182.512 47.0816 180.034 47.1996C180.034 47.3176 179.916 47.4356 179.916 47.5536C179.916 47.6716 179.916 47.6716 179.916 47.7896H180.742C181.568 47.7896 182.512 47.6716 183.338 47.6716C183.928 47.6716 185.108 47.7896 186.406 47.7896H186.996C186.996 47.6716 187.114 47.5536 187.114 47.4356C187.114 47.3176 187.114 47.1996 186.996 47.0816C186.288 47.0816 185.462 46.9636 184.872 46.7277C184.754 46.2557 184.636 45.6657 184.636 45.1937C184.636 42.9517 184.636 41.8897 184.636 40.3557C184.636 38.4678 184.636 36.9338 184.636 33.2759C184.872 33.2759 186.524 33.2759 187.114 33.2759C188.058 33.5118 188.884 34.1018 189.474 34.8098C189.946 35.5178 190.3 36.2258 190.418 37.0518C190.536 37.0518 190.654 37.0518 190.772 37.0518C190.89 37.0518 190.89 37.0518 191.008 36.9338ZM173.662 47.3176C173.662 47.1996 173.662 47.0816 173.544 47.0816C173.19 47.0816 172.364 46.9637 172.01 46.8457C171.656 46.3737 171.42 45.7837 171.302 45.1937C171.302 44.1317 171.302 41.8897 171.302 40.0018V34.6918C171.302 34.3378 171.42 33.8658 171.656 33.5118C172.246 33.1579 172.836 32.9219 173.544 32.9219C173.544 32.8039 173.662 32.8039 173.662 32.6859C173.662 32.5679 173.662 32.4499 173.544 32.4499H172.954C172.128 32.4499 170.83 32.5679 170.122 32.5679C169.65 32.5679 168.47 32.4499 167.526 32.4499H167.054C166.936 32.5679 166.936 32.5679 166.936 32.6859C166.936 32.8039 166.936 32.9219 166.936 32.9219C167.526 32.9219 167.998 33.0399 168.588 33.1579C169.06 33.6298 169.296 34.2198 169.296 34.9278C169.296 35.2818 169.296 36.3438 169.414 38.3498C169.414 39.4118 169.414 40.8277 169.414 42.0077C169.414 42.5977 169.414 44.1317 169.296 44.9577C169.296 45.4297 169.178 45.7837 169.06 46.2557C168.824 46.4917 168.588 46.8457 167.054 46.9636C167.054 47.0816 166.936 47.1996 166.936 47.3176C166.936 47.4356 166.936 47.4356 166.936 47.5536H167.29C168.116 47.5536 169.414 47.4356 170.476 47.4356C170.83 47.4356 172.128 47.5536 172.836 47.5536H173.544C173.544 47.4356 173.662 47.3176 173.662 47.3176ZM163.278 43.4237C163.278 41.7717 162.334 40.3557 160.918 39.7658C160.21 39.4118 159.384 39.1758 158.558 38.9398C157.496 38.7038 156.434 38.2318 155.49 37.7598C154.664 37.2878 154.192 36.4618 154.31 35.5178C154.31 34.2198 155.726 33.0399 157.26 33.0399C158.44 33.0399 159.502 33.6298 160.092 34.4558C160.682 35.1638 161.036 35.9898 161.39 36.8158C161.508 36.8158 161.508 36.8158 161.626 36.8158C161.744 36.8158 161.98 36.6978 162.098 36.5798C161.98 35.9898 161.98 35.2818 161.98 34.6918C161.98 34.1018 162.098 33.6298 162.216 33.0399C162.098 32.8039 161.862 32.6859 161.626 32.8039C161.272 33.0399 161.036 33.2759 160.8 33.5118C159.856 32.6859 158.558 32.2139 157.26 32.2139C154.664 32.2139 152.894 33.9838 152.894 36.2258C152.894 37.0518 153.13 37.8778 153.72 38.4678C154.192 39.1758 154.9 39.6478 155.726 40.0018C156.316 40.2378 159.03 41.0637 159.384 41.1817C161.036 41.7717 161.744 42.3617 161.744 43.8957C161.744 44.7217 161.39 45.4297 160.8 46.0197C160.21 46.7277 159.384 47.0816 158.44 46.9636C157.142 46.9636 155.844 46.3737 154.9 45.4297C154.31 44.6037 153.838 43.6597 153.484 42.5977C153.366 42.5977 153.248 42.5977 153.248 42.5977C153.13 42.5977 153.012 42.5977 152.894 42.7157C152.894 42.9517 153.012 44.3677 153.012 44.8397C153.012 45.4297 152.894 46.1377 152.776 46.7277C152.894 46.9636 153.13 47.0816 153.484 47.1996C153.838 46.8457 154.192 46.7277 154.546 46.4917C154.782 46.4917 154.9 46.6097 155.018 46.7277C156.08 47.4356 157.26 47.7896 158.558 47.7896C161.154 47.7896 163.278 46.3737 163.278 43.4237ZM144.752 36.2258C144.752 37.6418 143.808 38.9398 142.51 39.2938C141.802 39.4118 141.094 39.5298 140.386 39.4118C139.914 39.4118 139.56 39.4118 139.088 39.4118V37.5238V33.5118C139.088 33.2759 139.206 33.0399 139.206 33.0399C139.678 32.9219 140.15 32.9219 140.622 32.9219C142.628 32.9219 143.454 33.1579 144.162 34.1018C144.634 34.8098 144.87 35.5178 144.752 36.2258ZM149.236 47.3176C149.236 47.1996 149.236 47.0816 149.118 46.9636C148.646 46.9636 148.174 46.8456 147.702 46.7277C147.584 46.6097 147.466 46.3737 147.348 46.2557C147.112 45.3117 146.758 44.4857 146.522 43.6597C146.168 42.7157 145.696 41.8897 144.988 41.1817C144.516 40.8277 144.044 40.5917 143.454 40.4737C143.1 40.3557 142.864 40.2377 142.628 40.1198C142.864 40.1198 143.218 40.0018 143.454 40.0018C144.28 40.0018 144.988 39.7658 145.696 39.1758C146.522 38.5858 147.112 37.5238 147.112 36.4618C147.112 34.8098 146.05 33.2759 144.516 32.6859C143.69 32.4499 142.864 32.4499 142.038 32.4499C140.504 32.4499 139.324 32.5679 138.262 32.5679C137.908 32.5679 136.964 32.5679 136.138 32.5679C135.784 32.5679 135.076 32.5679 134.958 32.5679C134.84 32.6859 134.84 32.8039 134.84 32.8039C134.84 32.9219 134.84 33.0399 134.84 33.0399C135.194 33.0399 135.784 33.1579 136.138 33.2759C136.492 33.5118 136.846 33.9838 136.964 34.4558C137.082 35.1638 137.082 37.0518 137.082 40.0018C137.082 42.1257 137.082 44.8397 136.964 45.5477C136.964 46.1377 136.61 46.7277 136.138 46.9636C135.784 47.0816 135.312 47.0816 134.958 47.0816C134.84 47.1996 134.84 47.3176 134.84 47.3176C134.84 47.4356 134.84 47.4356 134.958 47.5536C135.194 47.5536 137.672 47.4356 138.38 47.4356C139.678 47.4356 140.032 47.5536 141.212 47.5536C141.212 47.4356 141.33 47.4356 141.33 47.3176C141.33 47.1996 141.33 47.0816 141.212 46.9636C140.74 46.9636 140.268 46.8456 140.032 46.7277C139.442 46.4917 139.088 45.9017 139.088 45.1937V40.0018C139.206 40.0018 139.914 40.0018 140.032 40.0018C140.622 40.0018 141.212 40.1198 141.684 40.3557C142.51 40.7097 143.218 41.2997 143.69 42.0077C144.398 43.4237 144.87 44.9577 144.988 46.6097C145.106 47.0816 145.224 47.4356 145.578 47.4356C145.932 47.4356 146.404 47.5536 146.758 47.5536H148.882C149.118 47.5536 149.236 47.4356 149.236 47.3176ZM131.655 44.1317C131.655 43.8957 131.655 43.7777 131.655 43.5417C131.537 43.5417 131.419 43.4237 131.301 43.4237C131.183 43.4237 131.065 43.4237 131.065 43.4237C130.711 44.7217 130.003 45.9017 128.941 46.6097C128.351 46.8457 127.761 46.8457 127.171 46.8457H124.811C124.339 46.8457 123.867 46.8456 123.395 46.7277C123.041 46.6097 122.805 46.1377 122.569 45.7837C122.333 45.3117 122.333 44.8397 122.333 44.3677V39.6478H123.041C123.631 39.6478 124.221 39.7658 124.811 40.0018C125.283 40.2378 125.637 40.4737 125.991 40.9457C126.109 41.5357 126.227 42.1257 126.227 42.7157C126.345 42.8337 126.463 42.8337 126.581 42.8337C126.699 42.8337 126.817 42.8337 126.935 42.7157C126.935 42.1257 126.817 40.5917 126.817 39.7658C126.817 38.7038 126.935 37.4058 127.053 36.6978C126.935 36.5798 126.817 36.5798 126.699 36.5798C126.581 36.5798 126.463 36.5798 126.345 36.6978C126.227 37.0518 126.109 37.8778 126.109 37.8778C125.755 38.4678 125.165 38.8218 124.457 38.9398C123.867 39.0578 123.277 39.1758 122.687 39.0578H122.333V37.0518C122.333 35.0458 122.333 34.2198 122.451 33.8658C122.451 33.6298 122.569 33.3939 122.569 33.1579C122.805 33.1579 123.395 33.1579 124.339 33.1579C125.519 33.1579 126.463 33.1579 126.581 33.1579C127.053 33.1579 127.525 33.2759 127.879 33.6298C128.705 34.3378 129.413 35.1638 129.767 36.2258C129.885 36.2258 129.885 36.2258 130.003 36.2258C130.121 36.2258 130.121 36.2258 130.357 36.1078C130.357 34.8098 130.239 33.3939 130.239 32.9219C130.239 32.6859 130.121 32.6859 129.767 32.6859C129.649 32.6859 128.823 32.6859 127.997 32.6859C126.817 32.6859 126.345 32.6859 124.457 32.6859C123.513 32.6859 121.743 32.6859 120.917 32.6859C119.619 32.6859 119.383 32.6859 118.793 32.6859H118.085C117.967 32.8039 117.967 32.8039 117.967 32.9219C117.967 33.0399 117.967 33.1579 118.085 33.2759C118.557 33.2759 119.147 33.3939 119.619 33.5118C119.855 33.7478 120.209 33.8658 120.327 34.8098C120.327 35.2818 120.445 36.6978 120.445 37.6418V41.8897C120.445 42.7157 120.445 44.2497 120.445 44.7217C120.445 45.4297 120.209 46.1377 119.973 46.7277C119.383 46.9636 118.675 47.0816 118.085 47.0816C117.967 47.1996 117.967 47.3176 117.967 47.4356C117.967 47.5536 117.967 47.6716 118.085 47.6716H118.793C119.501 47.6716 121.153 47.5536 121.743 47.5536C122.215 47.5536 122.923 47.5536 124.221 47.5536C124.929 47.5536 126.817 47.6716 131.065 47.6716C131.301 47.6716 131.419 47.6716 131.655 47.6716C131.655 47.5536 131.773 47.4356 131.773 47.3176C131.655 46.8456 131.655 45.7837 131.655 44.1317ZM116.197 32.6859C116.197 32.5679 116.197 32.4499 116.079 32.4499H115.371C114.899 32.4499 114.073 32.4499 113.719 32.4499C112.067 32.4499 111.477 32.3319 111.123 32.3319H110.769C110.769 32.4499 110.651 32.4499 110.651 32.5679C110.651 32.6859 110.651 32.6859 110.651 32.8039C111.123 32.9219 111.595 32.9219 112.067 33.1579C112.421 33.5118 112.539 33.9838 112.539 34.4558C112.421 35.1638 112.303 35.7538 112.067 36.3438L108.645 44.6037L104.633 34.2198C104.633 33.7478 104.869 33.2759 105.341 33.0399C105.813 32.9219 106.285 32.9219 106.639 32.9219C106.639 32.8039 106.757 32.6859 106.757 32.6859C106.757 32.5679 106.757 32.4499 106.639 32.4499H106.167C105.577 32.4499 104.515 32.5679 103.453 32.5679C102.981 32.5679 102.037 32.5679 101.093 32.5679H100.267C100.267 32.6859 100.149 32.6859 100.149 32.8039C100.149 32.9219 100.149 32.9219 100.267 33.0399C100.857 33.1579 101.447 33.3939 102.037 33.7478C102.627 34.9278 103.217 36.2258 103.807 37.5238L105.577 41.6537C106.993 45.0757 107.819 47.4356 107.937 47.7896C108.055 47.9076 107.937 47.9076 108.173 47.9076C108.409 47.9076 108.291 47.9076 108.409 47.7896L113.837 34.8098C114.073 34.3378 114.309 33.9838 114.545 33.6298C115.017 33.2759 115.607 33.0399 116.197 32.9219C116.079 32.9219 116.197 32.8039 116.197 32.6859ZM97.907 47.3176C97.907 47.1996 97.907 47.0816 97.789 47.0816C97.435 47.0816 96.6091 46.9637 96.2551 46.8457C95.9011 46.3737 95.6651 45.7837 95.5471 45.1937C95.5471 44.1317 95.5471 41.8897 95.5471 40.0018V34.6918C95.5471 34.3378 95.6651 33.8658 95.9011 33.5118C96.4911 33.1579 97.0811 32.9219 97.789 32.9219C97.789 32.8039 97.907 32.8039 97.907 32.6859C97.907 32.5679 97.907 32.4499 97.789 32.4499H97.1991C96.3731 32.4499 95.0751 32.5679 94.3671 32.5679C93.8951 32.5679 92.7151 32.4499 91.7711 32.4499H91.2991C91.1811 32.5679 91.1811 32.5679 91.1811 32.6859C91.1811 32.8039 91.1811 32.9219 91.1811 32.9219C91.7711 32.9219 92.2431 33.0399 92.8331 33.1579C93.3051 33.6298 93.5411 34.2198 93.5411 34.9278C93.5411 35.2818 93.5411 36.3438 93.6591 38.3498C93.6591 39.4118 93.6591 40.8277 93.6591 42.0077C93.6591 42.5977 93.6591 44.1317 93.5411 44.9577C93.5411 45.4297 93.4231 45.7837 93.3051 46.2557C93.0691 46.4917 92.8331 46.8457 91.2991 46.9636C91.2991 47.0816 91.1811 47.1996 91.1811 47.3176C91.1811 47.4356 91.1811 47.4356 91.1811 47.5536H91.5351C92.3611 47.5536 93.6591 47.4356 94.7211 47.4356C95.0751 47.4356 96.3731 47.5536 97.0811 47.5536H97.789C97.789 47.4356 97.907 47.3176 97.907 47.3176ZM88.3492 32.6859C88.3492 32.5679 88.3492 32.5679 88.2312 32.4499H87.7592C86.6972 32.4499 86.2252 32.4499 84.3372 32.4499C83.6292 32.4499 82.6853 32.4499 82.4493 32.4499H81.8593C81.7413 32.4499 81.7413 32.6859 81.7413 32.6859C81.7413 32.8039 81.7413 32.8039 81.8593 32.9219C82.5673 33.0399 83.2753 33.2759 83.9832 33.5118C84.3372 34.1018 84.5732 34.9278 84.5732 35.6358C84.5732 35.9898 84.5732 36.2258 84.5732 37.1698V43.4237C84.5732 43.7777 84.5732 44.0137 84.5732 44.3677C84.2192 44.0137 83.6292 43.1877 82.8033 42.2437L74.7794 32.9219C74.6614 32.8039 74.5434 32.6859 74.4254 32.6859C74.3074 32.6859 74.0714 32.6859 73.8354 32.6859C72.5374 32.6859 71.3574 32.5679 71.0034 32.5679C71.0034 32.6859 70.8854 32.6859 70.8854 32.8039C70.8854 32.9219 70.8854 33.0399 70.8854 33.0399C71.4754 33.1579 72.0654 33.2759 72.5374 33.6298C72.8914 33.9838 73.2454 34.4558 73.5994 34.8098C73.7174 35.0458 73.7174 35.2818 73.7174 35.5178C73.7174 36.5798 73.5994 38.5858 73.5994 40.0018V44.4857C73.5994 45.0757 73.5994 45.5477 73.4814 46.0197C72.8914 46.6097 72.0654 46.9637 71.2394 47.0816C71.2394 47.1996 71.1214 47.1996 71.1214 47.3176C71.1214 47.4356 71.1214 47.5536 71.2394 47.5536H71.5934C72.0654 47.5536 73.0094 47.4356 73.5994 47.4356C74.5434 47.4356 74.8974 47.5536 75.8414 47.5536H77.1393C77.2573 47.5536 77.2573 47.3176 77.2573 47.3176C77.2573 47.1996 77.2573 47.1996 77.1393 47.0816C76.1954 46.9637 75.2514 46.4917 74.6614 45.7837C74.4254 44.9577 74.4254 44.0137 74.4254 43.1877C74.4254 42.4797 74.4254 41.4177 74.4254 40.2377C74.4254 38.5858 74.4254 36.3438 74.4254 35.5178C74.5434 35.6358 74.7794 35.8718 74.8974 36.1078L84.8092 47.6716C84.8092 47.7896 84.9272 47.7896 85.0452 47.7896C85.1632 47.7896 85.0452 47.7896 85.1632 47.7896C85.2812 47.4356 85.2812 47.1996 85.2812 46.8457C85.2812 46.2557 85.2812 45.6657 85.2812 45.3117V36.4618C85.2812 33.8658 86.4612 33.1579 87.9952 33.0399C88.3492 32.8039 88.4672 32.8039 88.3492 32.6859ZM68.9975 32.8039C68.9975 32.6859 68.9975 32.5679 68.8795 32.5679H68.2895C67.5815 32.5679 66.7555 32.5679 66.0475 32.5679C65.2215 32.5679 64.2775 32.5679 63.6875 32.5679H62.9796C62.9796 32.6859 62.8616 32.6859 62.8616 32.8039C62.8616 32.9219 62.8616 33.0399 62.9796 33.0399C63.0976 33.0399 64.6315 33.0399 64.8675 33.3938C65.2215 33.8658 65.4575 34.3378 65.6935 34.9278C65.8115 35.6358 65.9295 36.4618 65.8115 37.1698C65.8115 38.9398 65.8115 40.1198 65.8115 40.7097C65.8115 41.6537 65.6935 42.5977 65.4575 43.5417C64.8675 45.3117 63.5695 46.2557 61.3276 46.2557C60.5016 46.2557 59.6756 46.1377 58.8496 45.7837C57.7876 45.3117 56.9616 44.3677 56.8436 43.1877L56.7256 36.9338V34.3378C56.7256 33.8658 57.3156 33.3939 57.5516 33.1579C58.0236 33.0399 58.6136 32.9219 59.2036 32.9219C59.3216 32.8039 59.3216 32.6859 59.3216 32.6859C59.3216 32.5679 59.3216 32.4499 59.2036 32.4499H58.3776C57.5516 32.4499 56.6076 32.4499 55.8997 32.4499C54.8377 32.4499 54.1297 32.4499 53.5397 32.4499H52.7137C52.5957 32.5679 52.5957 32.6859 52.5957 32.6859C52.5957 32.8039 52.5957 32.9219 52.7137 32.9219C53.4217 33.0399 53.7757 33.0399 54.1297 33.1579C54.4837 33.3939 54.7197 33.7478 54.8377 34.1018C54.8377 34.3378 54.9557 35.0458 54.9557 36.3438V41.4177C54.9557 42.3617 54.9557 43.3057 55.1917 44.2497C55.4277 45.3117 56.1357 46.2557 56.9616 46.8457C58.1416 47.5536 59.4396 47.9076 60.7376 47.9076C62.0356 47.9076 63.2155 47.6716 64.2775 47.0816C65.3395 46.4917 66.0475 45.4297 66.4015 44.2497C66.6375 43.4237 66.7555 42.5977 66.7555 41.7717V37.7598C66.7555 37.0518 66.7555 36.1078 66.7555 35.6358C66.7555 34.8098 66.9915 33.9838 67.3455 33.3938C67.9355 33.2759 68.5255 33.1579 69.1155 33.1579C68.9975 32.9219 68.9975 32.8039 68.9975 32.8039Z" fill="black"/>
</svg>
