<svg width="71" height="34" viewBox="0 0 71 34" fill="none" xmlns="http://www.w3.org/2000/svg">
<path d="M32.9496 0.438123H33.9743L34.0914 0H21.532L21.4149 0.438123H23.2593C24.8402 0.438123 26.0991 1.54804 26.0991 3.73865C26.0991 4.9654 25.5721 6.54264 24.7231 8.44118L16.6137 26.375L14.6229 3.09607C14.4473 1.25595 15.3548 0.467331 17.4334 0.467331H18.6045L18.7216 0H1.03894L0.863281 0.438123H2.00504C3.38101 0.438123 3.90797 1.28516 4.08363 2.95003L7.21615 33.0637H14.6522L27.0945 6.77631C28.9681 2.8332 30.9589 0.438123 32.9496 0.438123ZM31.4858 33.239C30.3441 33.239 29.6415 32.8885 29.6415 31.0191C29.6415 28.6533 30.4905 24.0676 31.4273 19.8908C31.5444 21.8477 32.8911 23.7463 34.8818 23.7463C35.3795 23.7463 35.7894 23.7171 36.17 23.6294C34.3842 31.5741 33.6523 33.239 31.4858 33.239ZM66.9389 17.4081C69.3103 17.4081 70.8033 15.4511 70.8033 13.2605C70.8033 11.3912 69.4567 10.0184 67.5537 10.0184C64.0992 10.0184 62.4597 12.7348 59.62 17.7586C59.0052 14.6333 57.5999 10.5442 53.9404 10.5442C49.8418 10.5442 45.1284 16.3858 40.7663 20.0076C38.8048 21.6433 36.6091 22.6948 34.8526 22.6948C33.0667 22.6948 32.0128 20.8547 32.0128 17.671C33.2717 12.4427 33.9743 11.0699 35.9065 11.0699C37.2532 11.0699 37.8094 11.8293 37.8094 13.4358C37.8094 15.1006 37.4581 17.9338 36.697 21.468C38.6584 20.8547 41.586 18.4304 44.0159 15.7724C42.7278 12.6764 39.9466 10.5734 35.9065 10.5734C28.4704 10.5734 21.9419 17.2328 21.9419 24.7102C21.9419 29.88 25.6014 33.7647 31.3395 33.7647C40.8249 33.7647 44.7771 25.5572 44.7771 19.8908C44.7771 19.073 44.7478 18.4596 44.66 17.7294C46.1238 16.1521 47.9974 14.6333 49.5491 14.6333C51.3056 14.6333 52.6816 19.0146 54.0575 25.6448C52.828 26.9884 51.6277 29.5879 51.0129 30.0261C50.7787 27.6602 49.227 26.1998 47.1484 26.1998C44.8356 26.1998 43.1962 28.3904 43.1962 30.2597C43.1962 32.3627 44.66 33.7355 46.5629 33.7355C50.603 33.7355 51.7155 29.9092 54.2625 26.5503C55.0237 30.1721 56.8388 33.7355 59.9127 33.7355C63.5722 33.7355 66.9975 30.6102 68.7248 28.3904L68.4027 27.8646C67.261 28.9746 66.1778 29.7048 64.9189 29.7048C62.6354 29.7048 61.0252 24.7978 59.7663 18.8685C60.4982 17.8462 61.6693 15.3051 62.489 14.3997C63.0745 15.4219 64.2456 17.4081 66.9389 17.4081Z" fill="white"/>
</svg>
