<svg width="297" height="47" viewBox="0 0 297 47" fill="none" xmlns="http://www.w3.org/2000/svg">
<path d="M17.4107 14.2207V30.5289C19.5872 29.3547 21.1235 27.2673 21.8277 24.9189L22.0197 24.9841C21.5716 30.7898 17.6667 36.6608 11.5854 36.6608C5.43999 36.6608 0.958984 32.0293 0.958984 24.658C0.958984 19.1132 4.47978 15.5906 9.08881 12.4594C8.44867 12.2638 7.74451 12.1985 7.04035 12.1985C3.90365 12.1985 2.11124 14.3512 2.11124 16.5691H1.85519C1.79117 16.2429 1.79117 15.982 1.79117 15.6559C1.79117 11.7419 3.83963 6.9799 8.76874 6.9799C11.9054 6.9799 14.338 9.91537 18.0508 9.91537C19.5232 9.91537 21.3156 9.19781 22.0837 7.567H22.2118C22.1478 10.4372 21.2516 13.3727 17.4107 14.2207ZM19.7792 30.9203C17.6027 33.2687 15.2982 35.2257 12.2255 35.2257C6.59225 35.2909 2.23927 30.7898 2.23927 24.2666C2.23927 20.4178 3.77562 18.3304 5.50401 15.9168H5.37598C4.28773 17.0257 1.40709 19.8307 1.40709 24.5275C1.40709 31.7683 5.88809 36.2042 11.7134 36.2042C15.8103 36.2042 18.5629 33.3339 19.8432 30.9855L19.7792 30.9203ZM21.5076 9.52398C20.8035 10.9591 19.2031 12.7204 16.0664 12.7204C12.9297 12.7204 9.98502 10.5025 7.42444 10.5025C5.05591 10.5025 3.45555 12.0681 2.87942 13.3075V13.4379C3.7116 12.5899 4.99189 11.7419 7.04035 11.7419C10.4331 11.7419 12.6096 13.8293 16.0024 13.8293C19.6512 13.8293 21.3156 11.4157 21.5716 9.52398C21.5716 9.58921 21.5076 9.52398 21.5076 9.52398ZM9.4729 12.5899C7.2324 14.9383 5.24795 17.4824 5.24795 22.5053C5.24795 25.2451 6.14415 28.0501 8.19261 29.8114L9.4729 29.159V17.2867L8.32064 17.8738L8.00057 17.4824L14.0819 14.1555C12.4176 13.7641 10.9452 13.0465 9.4729 12.5899ZM16.9626 14.286C16.6425 14.3512 16.3224 14.3512 16.0024 14.3512C15.4262 14.3512 14.8501 14.286 14.274 14.1555V27.0716L8.5767 30.2027C9.72896 31.116 11.2013 31.6379 12.9937 31.6379C14.466 31.6379 15.7463 31.3117 16.9626 30.7898V14.286ZM10.6892 16.5691L9.85699 17.0257V28.8329L10.6892 28.3762C10.6892 28.4415 10.6892 16.5691 10.6892 16.5691ZM35.5908 18.2652V33.5296C35.5908 37.7697 31.8779 40.64 27.781 41.488L27.717 41.2923C29.7655 40.2486 30.9177 38.2264 30.9177 36.0085V20.1569L28.5492 18.0042L27.653 19.048V31.3117L28.9333 32.4859V32.6164L25.4125 36.5303L21.4436 32.7468V32.5511L22.9799 30.8551V11.4157L27.589 6.45804L27.653 6.52327V18.2652L31.4298 14.0903L35.3987 17.6781L36.1669 16.9605L36.487 17.2867C36.487 17.2867 35.5908 18.1999 35.5908 18.2652ZM23.4921 32.6816V32.6164L24.3883 31.7031V10.6329L23.4921 11.6114V31.1812L22.0837 32.6164V32.6816L25.4765 35.7475L26.0526 35.03C26.0526 35.0952 23.4921 32.6816 23.4921 32.6816ZM32.326 19.4394L29.5094 16.9605L28.9333 17.6128L31.4298 19.896V35.878C31.4298 36.9217 31.2378 38.0307 30.8537 38.683L30.9177 38.7482C32.006 37.9654 32.3901 36.7913 32.3901 35.2257L32.326 19.4394ZM42.5043 27.1368V29.3547L46.7293 32.6816L49.1618 30.007L49.4819 30.3332L43.8486 36.5303L38.1514 31.8336L37.2552 32.7468L36.9351 32.4207L37.9593 31.3769V20.2221L46.1532 14.1555L50.4421 21.2006L42.5043 27.1368ZM39.3036 30.9855V19.7655L38.4074 20.4178V31.4422L43.7846 35.878L44.4888 35.0952C44.4248 35.1604 39.3036 30.9855 39.3036 30.9855ZM42.5684 17.4171L42.5043 17.4824V26.5497L46.3452 23.6795C46.3452 23.6142 42.5684 17.4171 42.5684 17.4171ZM43.7206 16.5039L42.9524 17.091L46.7933 23.2881L47.5615 22.701C47.4975 22.7662 43.7206 16.5039 43.7206 16.5039ZM78.6085 36.5303L72.5911 31.2465L67.9821 36.5303L61.7727 31.0508V22.3748H60.5564C59.4682 22.3748 58.892 23.0924 58.636 23.9404H58.5079C58.3799 23.4185 58.3159 22.8314 58.3159 22.2444C58.3159 21.0702 58.636 18.0695 61.7727 18.0695V10.5025C61.7727 9.06735 60.1083 8.48025 60.1083 6.52327C60.1083 3.9792 62.4768 1.56559 66.7658 0L66.9578 0.130465C65.4215 1.04372 64.5893 1.95698 64.5893 3.84873C64.5893 6.7842 67.3419 6.00141 67.3419 10.6329V12.3942L72.3991 6.9799L77.7123 12.329L82.7054 6.9799L87.5705 11.8071V28.1153L78.6085 36.5303ZM63.181 30.3332V21.0049H60.7484C59.4682 21.0049 58.956 21.853 58.828 22.5705L58.892 22.6358C59.3401 22.1791 59.7882 21.853 60.7484 21.853H62.2848V30.7898L67.9821 35.8128L68.6222 35.03L63.181 30.3332ZM63.181 10.0458C63.181 8.21932 61.6446 7.63223 61.6446 6.45804C61.6446 4.89245 62.2208 3.52257 63.181 2.28315H63.053C61.7727 3.32687 60.5564 4.95769 60.5564 6.52327C60.5564 8.08886 62.2208 8.87165 62.2208 10.3068V18.1347H63.117C63.181 18.0695 63.181 10.0458 63.181 10.0458ZM72.271 14.4817L69.0063 11.22L67.2779 13.0465V28.7024L71.2468 32.0945L72.3351 30.8551C72.271 30.7898 72.271 14.4817 72.271 14.4817ZM73.6794 30.268V13.8946L69.9665 10.1763L69.2624 10.8939L72.7191 14.286V30.7246L78.5444 35.878L79.2486 35.2257C79.3126 35.2257 73.6794 30.268 73.6794 30.268ZM82.0652 13.8946L79.3126 11.22L77.7763 12.8508V28.5719L82.0012 32.3554L82.0652 32.2902C82.0652 32.3554 82.0652 13.8946 82.0652 13.8946ZM83.4736 13.3075L80.3369 10.1763L79.6967 10.8939L82.5774 13.6989V32.1597L83.4736 31.2465V13.3075ZM101.91 36.5303L97.8128 32.7468L94.1 36.5303L89.6189 32.4859L89.0428 33.1382L88.7227 32.8121L89.4909 31.964V20.0917L97.6207 14.0903L102.294 17.8085L103.126 16.8953L103.446 17.2214L102.486 18.2652V30.4637L104.79 32.6164L105.559 31.8336L105.879 32.1597L101.91 36.5303ZM90.7712 31.6379V19.7003L89.875 20.3526V32.0293L94.0359 35.8128L94.7401 35.0952L90.7712 31.6379ZM97.7488 20.0264L94.228 17.2214L94.1 17.2867V30.1375L97.0446 32.7468L97.7488 31.964V20.0264ZM99.1571 32.0293V19.3089L95.4443 16.2429L94.548 16.83L98.1969 19.7655V32.4207L101.846 35.7475L102.486 35.03C102.55 35.0952 99.1571 32.0293 99.1571 32.0293ZM114.521 22.1139H119.002V31.5726L112.088 36.5303C111.192 35.4866 109.848 34.7038 108.247 34.7038C106.967 34.7038 105.879 35.1604 104.534 36.3346L104.342 36.2694L110.232 27.5282H106.583V19.3089L113.816 14.2207C114.713 14.9383 115.353 15.3297 116.441 15.3297C117.337 15.3297 118.553 15.134 119.514 14.3512L119.706 14.4164L114.521 22.1139ZM109.655 33.3992C108.375 33.3992 107.415 33.8558 106.519 34.4429V34.5733C107.223 34.2472 107.927 34.1819 108.567 34.1819C109.591 34.1819 111.128 34.6386 112.152 35.878L113.176 35.0952C112.344 34.1819 111.32 33.3992 109.655 33.3992ZM114.264 26.0279H111.832L106.775 33.4644L106.839 33.5296C108.119 32.6164 109.335 31.964 110.808 31.964C112.088 31.964 113.432 32.5511 114.264 33.6601L114.329 33.5948C114.264 33.6601 114.264 26.0279 114.264 26.0279ZM107.927 26.0279V18.9175L107.031 19.5698V27.0063H110.552L111.256 26.0279H107.927ZM117.017 17.3519C116.121 18.0042 115.609 18.3956 114.072 18.3956C113.176 18.3956 112.152 18.0042 111.32 17.091L111.256 17.1562V23.6142H112.92L117.017 17.3519ZM114.905 16.9605C114.136 16.9605 113.112 16.5691 112.472 15.6559L111.384 16.4386C112.216 17.4824 112.984 17.8738 114.2 17.8738C114.969 17.8738 116.121 17.6781 117.273 16.6343L117.337 16.5039C116.633 16.83 115.673 16.9605 114.905 16.9605ZM115.673 24.5275H112.856L112.216 25.4408H114.777V33.9862L115.673 33.3339C115.673 33.3992 115.673 24.5275 115.673 24.5275ZM133.917 18.2652V33.5296C133.917 37.7697 130.204 40.64 126.107 41.488L126.043 41.2923C128.092 40.2486 129.244 38.2264 129.244 36.0085V20.1569L126.875 18.0042L125.979 19.048V31.3117L127.259 32.4859V32.6164L123.739 36.5303L119.706 32.7468V32.5511L121.242 30.8551V11.4157L125.851 6.45804L125.915 6.52327V18.2652L129.692 14.0903L133.661 17.6781L134.365 16.8953L134.685 17.2214C134.749 17.2867 133.917 18.1999 133.917 18.2652ZM121.754 32.6816V32.6164L122.65 31.7031V10.6329L121.754 11.6114V31.1812L120.346 32.6164V32.6816L123.739 35.7475L124.315 35.03C124.379 35.0952 121.754 32.6816 121.754 32.6816ZM130.588 19.4394L127.772 16.9605L127.195 17.6128L129.692 19.896V35.878C129.692 36.9217 129.5 38.0307 129.116 38.683L129.18 38.7482C130.268 37.9654 130.652 36.7913 130.652 35.2257L130.588 19.4394ZM141.791 36.5303L138.078 33.073L137.182 33.9862L136.862 33.6601L137.886 32.5511V19.7655L136.093 18.0042L135.389 18.787L135.069 18.4609L138.974 14.1555L142.431 17.3519L143.327 16.3734L143.711 16.6996L142.623 17.8738V30.6594L144.671 32.6164L145.632 31.5726L145.952 31.8988L141.791 36.5303ZM139.23 32.1597V19.048L136.99 16.9605L136.413 17.6781L138.334 19.5698V32.6164L141.791 35.8128L142.431 35.0952L139.23 32.1597ZM140.51 13.6989L136.99 10.372L140.254 6.84944L143.775 10.1763L140.51 13.6989ZM138.334 9.71968L137.694 10.372L140.51 13.0465L141.151 12.329L138.334 9.71968ZM160.099 36.5303L156.322 33.073V20.1569L154.017 18.0695L152.801 19.3741V31.3117L154.145 32.6164V32.8121L150.625 36.5956L146.592 32.8121V32.6164L148.128 30.9203V19.8307L146.08 17.939L145.247 18.8523L144.927 18.5261L148.896 14.1555L152.865 17.7433V18.6566L156.962 14.2207L160.803 17.7433L161.699 16.83L162.083 17.1562L161.059 18.2652V30.9203L162.979 32.7468L163.94 31.7031L164.26 32.0293L160.099 36.5303ZM148.64 32.6816V32.6164C148.64 32.6816 149.536 31.7031 149.536 31.7031V19.1784L147.04 16.8953L146.464 17.5476L148.64 19.5698V31.2465L147.296 32.6816V32.7468L150.625 35.8128L151.329 35.03L148.64 32.6816ZM157.73 32.2902V19.3741L155.042 16.8953L154.338 17.6781L156.834 19.9612V32.8121L160.099 35.878L160.803 35.0952L157.73 32.2902ZM172.326 44.4235C170.917 42.8579 169.893 42.1403 168.549 42.1403C167.14 42.1403 165.476 42.7274 163.812 43.6407L163.684 43.5102L169.637 36.4651L165.412 33.0078L164.58 33.921L164.26 33.5948L165.22 32.5511V20.0917L173.478 14.0903L178.087 17.8085L178.855 16.8953L179.175 17.2214L178.279 18.2652V33.3339C178.279 35.6171 179.559 35.5518 179.559 37.2479C179.495 39.2701 176.679 41.1618 172.326 44.4235ZM166.564 32.225V19.7655L165.668 20.4178V32.6164L169.957 36.1389L170.597 35.3561L166.564 32.225ZM169.573 41.0314C168.165 41.0314 166.82 41.488 165.604 42.336V42.4013C166.372 42.0751 167.268 41.6837 168.741 41.6837C170.085 41.6837 171.237 42.4665 172.326 43.7712L173.222 43.0536C172.134 41.8142 170.853 41.0314 169.573 41.0314ZM174.886 36.7913C173.798 36.0737 173.542 35.3561 173.542 33.4644V32.6816L166.372 41.1618L166.436 41.2271C167.845 40.3791 169.061 39.792 171.109 39.792C172.838 39.792 173.99 40.5095 175.334 41.6185C176.166 40.9009 176.743 40.1834 176.743 39.0744C176.679 38.1611 175.974 37.5088 174.886 36.7913ZM173.542 20.0264L169.957 17.1562L169.893 17.2214V30.7898L172.646 33.0078L173.542 31.964V20.0264ZM176.166 36.2042C175.014 35.2909 174.886 34.5733 174.886 32.6816V19.2437L171.237 16.2429L170.405 16.83L173.926 19.7003V33.2687C173.926 35.1604 173.99 35.6823 175.206 36.4651C176.23 37.1827 177.063 37.9002 177.063 38.9439C177.063 39.2049 176.999 39.6615 176.999 39.6615L177.063 39.7267C177.255 39.531 177.511 39.1396 177.511 38.5525C177.575 37.6393 177.127 36.9217 176.166 36.2042ZM186.601 36.5303L182.632 33.3339L181.8 34.2472L181.48 33.921L182.44 32.8773V17.4171H179.943L179.879 17.3519L181.416 15.0688H182.504V12.1333L187.113 7.1756L187.177 7.24083V15.0688H190.634L190.698 15.134L189.161 17.4171H187.113V30.7898L189.481 32.6164L190.378 31.5726L190.698 31.8988L186.601 36.5303ZM183.784 11.2853L182.888 12.329V15.0035H183.784V11.2853ZM183.784 32.4207V17.4171H182.888V32.9425L186.601 35.878L187.241 35.1604L183.784 32.4207ZM204.845 18.6566V30.9855L197.547 36.5303L192.042 32.2902L191.402 33.073L191.082 32.7468L191.85 31.8336V19.7655L199.532 14.1555L204.653 18.1999L205.485 17.2867L205.805 17.6128L204.845 18.6566ZM193.194 31.3769V19.3089L192.298 19.9612V31.8336L197.483 35.878L198.315 35.2909L193.194 31.3769ZM200.172 20.1569L196.523 17.2214L196.459 17.2867V30.4637L200.172 33.2687V20.1569ZM201.58 19.3089L197.547 16.1125L196.715 16.6996L200.684 19.7655V33.4644L201.58 32.7468V19.3089ZM221.425 36.5303L217.648 33.073V20.1569L215.343 18.0695L214.127 19.3741V31.3117L215.471 32.6164V32.8121L211.95 36.5956L207.918 32.8121V32.6164L209.454 30.9203V19.8307L207.405 17.939L206.573 18.8523L206.253 18.5261L210.222 14.1555L214.191 17.7433V18.6566L218.288 14.2207L222.129 17.7433L223.025 16.83L223.409 17.1562L222.385 18.2652V30.9203L224.305 32.7468L225.265 31.7031L225.586 32.0293C225.586 31.964 221.425 36.5303 221.425 36.5303ZM209.966 32.6816V32.6164C209.966 32.6816 210.862 31.7031 210.862 31.7031V19.1784L208.366 16.8953L207.79 17.5476L209.966 19.5698V31.2465L208.622 32.6816V32.7468L211.95 35.8128L212.655 35.03L209.966 32.6816ZM218.992 32.2902V19.3741L216.303 16.8953L215.599 17.6781L218.096 19.9612V32.8121L221.361 35.878L222.065 35.0952L218.992 32.2902ZM248.183 36.5303C246.966 35.2257 246.518 34.769 245.11 34.3776V43.0536L245.046 43.1188L243.318 41.5532L238.26 46.25L238.196 46.1848V34.2472C236.66 34.5733 235.06 35.4214 233.523 36.9869L233.459 36.9217C233.779 33.5296 235.38 30.9855 238.196 30.007V21.4616H237.3C236.02 21.4616 235.38 22.1139 234.74 23.2881H234.612C234.484 22.8967 234.42 22.2444 234.42 21.2659C234.42 19.4393 235.764 17.4824 237.94 17.4824H238.196V12.7204L236.404 11.0896L235.508 12.0028L235.188 11.6767L239.541 6.9799L243.638 10.7634V14.8078L244.598 13.7641V8.67595H245.046V13.3075L250.807 6.9799L255.672 11.5462V30.6594L248.183 36.5303ZM238.132 32.6164C236.34 32.9425 235.124 34.0515 234.292 35.5518L234.356 35.6171C235.572 34.5733 236.724 34.0515 238.196 33.7253L238.132 32.6164ZM239.541 19.9612H237.172C235.508 19.9612 234.868 21.0049 234.804 22.2444L234.868 22.3096C235.38 21.3963 235.892 21.1354 236.916 21.0049H238.58V45.0106L239.477 44.0973C239.541 44.1625 239.541 19.9612 239.541 19.9612ZM239.541 12.0028L237.364 9.98061L236.66 10.7634L238.58 12.5247V17.4824H239.477L239.541 12.0028ZM244.598 14.5469L243.638 15.5906V41.0966L244.598 42.0099V14.5469ZM250.295 13.5032L247.735 11.0896L245.11 14.025V29.5504C247.35 29.7461 248.951 30.4637 250.295 31.964L250.359 31.8988V13.5032H250.295ZM245.11 32.6164V33.7905C246.582 34.1167 247.158 34.5733 248.247 35.8128L249.271 35.03C248.183 33.6601 247.094 32.8773 245.11 32.6164ZM251.639 12.7856L248.695 9.98061L247.991 10.6982L250.743 13.2422V33.7905L251.639 33.073C251.639 33.1382 251.639 12.7856 251.639 12.7856ZM270.844 18.6566V30.9855L263.546 36.5303L258.041 32.2902L257.401 33.073L257.081 32.7468L257.849 31.8336V19.7655L265.531 14.1555L270.652 18.1999L271.484 17.2867L271.804 17.6128C271.74 17.6781 270.844 18.6566 270.844 18.6566ZM259.193 31.3769V19.3089L258.297 19.9612V31.8336L263.482 35.878L264.314 35.2909L259.193 31.3769ZM266.171 20.1569L262.522 17.2214L262.458 17.2867V30.4637L266.171 33.2687V20.1569ZM267.579 19.3089L263.546 16.1125L262.714 16.6996L266.683 19.7655V33.4644L267.579 32.7468V19.3089ZM280.894 22.1139H285.375V31.5726L278.461 36.5303C277.565 35.4866 276.221 34.7038 274.621 34.7038C273.34 34.7038 272.252 35.1604 270.908 36.3346L270.716 36.2694L276.605 27.5282H272.956V19.3089L280.19 14.2207C281.086 14.9383 281.726 15.3297 282.814 15.3297C283.711 15.3297 284.927 15.134 285.887 14.3512L286.079 14.4164L280.894 22.1139ZM276.029 33.3992C274.749 33.3992 273.788 33.8558 272.892 34.4429V34.5733C273.596 34.2472 274.301 34.1819 274.941 34.1819C275.965 34.1819 277.501 34.6386 278.525 35.878L279.55 35.0952C278.718 34.1819 277.757 33.3992 276.029 33.3992ZM280.702 26.0279H278.269L273.212 33.4644L273.276 33.5296C274.557 32.6164 275.773 31.964 277.245 31.964C278.525 31.964 279.87 32.5511 280.702 33.6601L280.766 33.5948L280.702 26.0279ZM274.365 26.0279V18.9175L273.468 19.5698V27.0063H276.989L277.693 26.0279H274.365ZM283.455 17.3519C282.558 18.0042 282.046 18.3956 280.51 18.3956C279.614 18.3956 278.589 18.0042 277.757 17.091L277.693 17.1562V23.6142H279.358L283.455 17.3519ZM281.342 16.9605C280.574 16.9605 279.55 16.5691 278.91 15.6559L277.821 16.4386C278.654 17.4824 279.422 17.8738 280.638 17.8738C281.406 17.8738 282.558 17.6781 283.711 16.6343L283.775 16.5039C283.006 16.83 282.11 16.9605 281.342 16.9605ZM282.11 24.5275H279.294L278.654 25.4408H281.214V33.9862L282.11 33.3339V24.5275ZM292.545 36.5303L288.576 33.3339L287.744 34.2472L287.423 33.921L288.384 32.8773V17.4171H285.823L285.759 17.3519L287.295 15.0688H288.384V12.1333L292.993 7.1756L293.057 7.24083V15.0688H296.514L296.578 15.134L295.041 17.4171H292.993V30.7898L295.425 32.6164L296.321 31.5726L296.706 31.964L292.545 36.5303ZM289.728 11.2853L288.832 12.329V15.0035H289.728V11.2853ZM289.728 32.4207V17.4171H288.832V32.9425L292.545 35.878L293.185 35.1604L289.728 32.4207Z" fill="white"/>
</svg>
