<svg id="Layer_1" data-name="Layer 1" xmlns="http://www.w3.org/2000/svg" width="12px" viewBox="0 0 115 115"><path fill="#be5709" d="M40.7529,84.1606a10,10,0,0,1-7.0713-17.0712L97.1758,3.5952a10,10,0,0,1,14.1426,14.1426L47.8242,81.2319A9.9709,9.9709,0,0,1,40.7529,84.1606Z"/><path fill="#be5709" d="M105,51A10,10,0,0,1,95,41V20H74A10,10,0,0,1,74,0h31a10,10,0,0,1,10,10V41A10,10,0,0,1,105,51Z"/><path fill="#be5709" d="M76,115H25A25.0281,25.0281,0,0,1,0,90V39A25.0281,25.0281,0,0,1,25,14H44a10,10,0,0,1,0,20H25a5.0059,5.0059,0,0,0-5,5V90a5.0059,5.0059,0,0,0,5,5H76a5.0059,5.0059,0,0,0,5-5V70a10,10,0,0,1,20,0V90A25.0281,25.0281,0,0,1,76,115Z"/></svg>