<svg id="Layer_1" data-name="Layer 1" xmlns="http://www.w3.org/2000/svg" viewBox="0 0 176.2097 48.1328"><path d="M10.0289,39.5461a47.5556,47.5556,0,0,0,8.8279,8.5867,47.6618,47.6618,0,0,0,8.844-8.5639L18.85,30.9634Z" style="fill:#ed6d0b"/><path d="M5.9118,33.3915,18.86,20.9556,31.8327,33.4263a46.0313,46.0313,0,0,0,4.7966-12.5029c.0442-.2124.0824-.4221.1266-.6345H.9732A46.0771,46.0771,0,0,0,5.9118,33.3915Z" style="fill:#ed6d0b"/><path d="M5.9044,33.3915a46.8217,46.8217,0,0,0,4.1265,6.1546l8.8206-8.5827,8.85,8.6048a46.5275,46.5275,0,0,0,4.1232-6.1419L18.8515,20.9556Z" style="fill:#ed6d0b"/><path d="M18.8522,30.73,10.05,39.2962a46.8114,46.8114,0,0,1-3.9329-5.8746l12.738-12.2342L31.6183,33.4565a46.4963,46.4963,0,0,1-3.93,5.8625Z"/><path d="M18.8515,21.42l12.5538,12.068A46.3536,46.3536,0,0,1,27.668,39.069l-8.5827-8.3462-.2338-.2271-.2338.2271-8.5539,8.3235a46.6482,46.6482,0,0,1-3.74-5.5932L18.8528,21.42m0-.4643L5.9044,33.3915a46.8217,46.8217,0,0,0,4.1265,6.1546l8.8206-8.5827,8.85,8.6048a46.5275,46.5275,0,0,0,4.1232-6.1419L18.8515,20.9556Z"/><path d="M37.5632,7.0276a16.4842,16.4842,0,0,1-4.8152.7143A16.1579,16.1579,0,0,1,18.8669,0,16.1673,16.1673,0,0,1,4.9825,7.7419,16.5513,16.5513,0,0,1,.1739,7.031,45.318,45.318,0,0,0,.9645,20.297H36.7472A45.56,45.56,0,0,0,37.5632,7.0276Z"/><path d="M27.68,12.5009v-1.52h-.93V9.9086l-.9742-.2733h-.067V8.7234s-.335.402-1.876.402c-1.46,0-2.3175-.473-3.4786-.473a1.5839,1.5839,0,0,0-1.46.6378V9.658h-.0382V9.29a1.5954,1.5954,0,0,0-1.46-.6378c-1.1617,0-2.0187.4764-3.4793.4764-1.541,0-1.809-.402-1.809-.402v.9587h-.0636L10.987,9.908V10.98H10.05V12.5h.9333v2.4609H10.05V16.482h.9333v1.8914a22.6948,22.6948,0,0,0,3.015.2446c1.7112,0,2.6981-.2473,3.809-.268v.477a2.5779,2.5779,0,0,0,1.0445.2224,2.8461,2.8461,0,0,0,1.0827-.2224v-.4757c1.1075.0221,2.0951.268,3.8157.268a22.6641,22.6641,0,0,0,3.0062-.2446V16.482h.93V14.9611H26.75v-2.46Z" style="fill:#fff"/><path d="M25.8537,9.5341l.0046-1.1651-.2827.2981s-.35.3491-1.76.3491l-1.9068-.2539-1.5712-.2191a1.8652,1.8652,0,0,0-1.4793.5648,1.8759,1.8759,0,0,0-1.4794-.5648l-1.57.2224L13.9,9.02c-1.3869,0-1.675-.335-1.679-.335l-.2874-.3524-.0074.4449v.804l-1.1316.2378v8.74l.134.0188a22.8019,22.8019,0,0,0,3.0377.2479,34.6869,34.6869,0,0,0,3.6469-.2506v.3966l.0891.0476a2.7461,2.7461,0,0,0,1.1175.2378,2.9865,2.9865,0,0,0,1.15-.2378l.0938-.0442v-.402a34.7284,34.7284,0,0,0,3.6562.2506,22.8441,22.8441,0,0,0,3.0338-.2479l.134-.0188V9.8255ZM19.02,9.4229a1.4353,1.4353,0,0,1,1.3172-.5555l1.5008.2124,1.98.2607a3.9428,3.9428,0,0,0,1.7185-.2794v8.2638a4.7964,4.7964,0,0,1-1.7185.2539l-1.91-.2539-1.5712-.2191a1.97,1.97,0,0,0-1.3172.416Zm-6.767-.3457a3.7025,3.7025,0,0,0,1.6475.268l1.9792-.26,1.5-.2157a1.4442,1.4442,0,0,1,1.3172.5554v8.1a1.9816,1.9816,0,0,0-1.33-.4188l-1.5712.2225L13.9,17.58c-1.3869,0-1.675-.335-1.679-.335s.0248-7.6153.0281-8.168Zm14.3179,9.2011a22.16,22.16,0,0,1-2.8455.2224,35.8557,35.8557,0,0,1-3.7976-.268l-.1822-.0255v.5555a2.7247,2.7247,0,0,1-.9206.1681,2.5536,2.5536,0,0,1-.8824-.1648v-.5588l-.1829.0255a35.8383,35.8383,0,0,1-3.7882.268,22.1589,22.1589,0,0,1-2.85-.2224V10.08c.1494-.0282.5916-.124.808-.1682v7.4263c.0791.1715.4188.5648,1.9712.5648l1.9651-.2573,1.5015-.2157a1.4627,1.4627,0,0,1,1.3313.5554l.0462-.0254h.2318l.0442.0254a1.4351,1.4351,0,0,1,1.3172-.5554l1.5008.213,1.9806.26c1.5738,0,1.9664-.4127,2.0059-.46l.03-7.571c.2064.057.5842.1622.7156.201Z"/><path d="M14.5508,10.5324a.2787.2787,0,0,0-.2479.1621l-.5206,1.1585a.0988.0988,0,0,1-.0416.0187c-.0161,0-.0348-.0187-.0475-.0542s-.0764-.201-.2124-.5206l-.1682-.3759c-.06-.14-.1079-.2318-.124-.2606a.2506.2506,0,0,0-.219-.1267.0532.0532,0,0,1-.0094-.0348.0741.0741,0,0,1,.006-.0348h.0858c.0985,0,.1809.006.2539.006.0858,0,.2285-.0094.3236-.0094h.057c.0093,0,.0127.0221.0127.0322a.0865.0865,0,0,1-.0067.0382c-.0637.006-.2064,0-.2064.0924a.2233.2233,0,0,0,.0128.0764l.343.8127.2854-.67a.4215.4215,0,0,0,.0382-.1775c0-.0764-.0543-.1113-.197-.1267a.12.12,0,0,1-.0094-.0321.1569.1569,0,0,1,.0094-.0416H14.01c.0636,0,.1266.0094.268.0094.0254,0,.1239-.006.1715-.006h.0985c.006.0127.0127.0187.0127.0315A.09.09,0,0,1,14.5508,10.5324Z"/><path d="M16.0013,11.83c-.4161,0-.6412-.0094-.6981-.0094h-.197c-.0509,0-.19.0094-.335.0094h-.0824a.0572.0572,0,0,1-.0061-.0315.1742.1742,0,0,1,0-.0382.5524.5524,0,0,0,.21-.0442.3986.3986,0,0,0,.0442-.21v-.806c0-.1494-.0764-.1494-.2318-.1682a.1587.1587,0,0,1-.0061-.0348c0-.0094,0-.0322.0128-.0349h1.1872c.0315,0,.0442,0,.0442.0315l.0188.3109a.0678.0678,0,0,1-.0382.0127.0979.0979,0,0,1-.0315,0,.6149.6149,0,0,0-.2064-.2378.2156.2156,0,0,0-.1206-.0349h-.34c-.0127,0-.0127,0-.0187.0543,0,.0315-.006.0951-.006.276v.18h.0475a.661.661,0,0,0,.1555-.0161.2622.2622,0,0,0,.1393-.0985.6145.6145,0,0,0,.0322-.1145.0829.0829,0,0,1,.0442-.0094.0664.0664,0,0,1,.0348.0094c0,.0569-.0127.1621-.0127.2954,0,.067.006.2131.006.2734a.05.05,0,0,1-.0381.0094.1627.1627,0,0,1-.0382,0c-.0128-.1173-.0315-.197-.13-.2379a.3707.3707,0,0,0-.1521-.0288.48.48,0,0,0-.0925.006v.3585a.4447.4447,0,0,0,.0188.1621.1338.1338,0,0,0,.0824.0764.67.67,0,0,0,.1273.0094h.197a.3874.3874,0,0,0,.1494-.0221.7538.7538,0,0,0,.2191-.2955.1067.1067,0,0,1,.0415-.0067.1106.1106,0,0,1,.0416.0094v.3618C16.0743,11.8268,16.0522,11.83,16.0013,11.83Z"/><path d="M17.6522,10.8908H17.614a.8636.8636,0,0,0-.1018-.201.3255.3255,0,0,0-.254-.134h-.134v1.0218c0,.1588.0731.1588.2379.1809a.0753.0753,0,0,1,.0127.0382.072.072,0,0,1-.0094.0348h-.06c-.0951,0-.2854-.006-.3457-.006-.0415,0-.2506.0094-.3491.0094a.05.05,0,0,1-.0127-.0382.0811.0811,0,0,1,.0094-.0348c.2191-.0161.2412-.057.2479-.1267.006-.0442.006-.2251.006-.4093v-.5012a.8543.8543,0,0,0-.0127-.1682.946.946,0,0,0-.2131.0161.5428.5428,0,0,0-.276.3015.1275.1275,0,0,1-.0349,0,.0368.0368,0,0,1-.0314-.0127V10.509c0-.0315,0-.0416.0408-.0416h.6479c.33,0,.5742-.0094.6379-.0094.0314,0,.0542,0,.067.0128a.27.27,0,0,1,0,.0509v.3524A.0374.0374,0,0,1,17.6522,10.8908Z"/><path d="M14.4838,13.04h-.0416a.6709.6709,0,0,0-.1018-.201.3191.3191,0,0,0-.254-.134h-.134v1.0191c0,.1588.0764.1588.2412.1809a.0912.0912,0,0,1,.0034.073h-.06c-.0985,0-.2888-.006-.3457-.006-.0416,0-.2506.0094-.3524.0094a.0665.0665,0,0,1-.0094-.0382.17.17,0,0,1,.006-.0348c.2191-.0161.2412-.057.2506-.1267V12.864a.8691.8691,0,0,0-.0094-.1682.969.969,0,0,0-.2157.0161.5393.5393,0,0,0-.2727.3015.1627.1627,0,0,1-.0382,0,.0408.0408,0,0,1-.0315-.0127v-.3524c0-.0322.006-.0416.0415-.0416h.6513c.3269,0,.5742-.0094.6345-.0094.0348,0,.0569,0,.067.0128s0,.0321,0,.0509v.3524A.04.04,0,0,1,14.4838,13.04Z"/><path d="M16.0522,13.98c-.4127,0-.6412-.0093-.6948-.0093h-.201c-.0549,0-.19.0093-.335.0093H14.739a.0626.0626,0,0,1-.0094-.0321.0871.0871,0,0,1,.01-.0442.5118.5118,0,0,0,.2064-.0443c.0254-.0281.0381-.0857.0442-.21,0-.0636.006-.134.006-.2063v-.6c0-.1494-.073-.1494-.2285-.1681a.0832.0832,0,0,1-.0093-.0349c0-.0094.006-.0315.016-.0348h1.1839c.0349,0,.0476,0,.0476.0321l.0161.3109a.0614.0614,0,0,1-.0382.0127.1108.1108,0,0,1-.0315,0,.57.57,0,0,0-.2144-.2311.2066.2066,0,0,0-.1173-.0348h-.34c-.01,0-.0161,0-.0222.0542v.45h.0443a.63.63,0,0,0,.1554-.0161.2673.2673,0,0,0,.1427-.0985A.5946.5946,0,0,0,15.63,12.97a.1.1,0,0,1,.0442-.0094.0665.0665,0,0,1,.0382.0094c0,.0569-.016.1621-.016.2954,0,.067.0093.2124.0093.2727a.0529.0529,0,0,1-.0382.0094.18.18,0,0,1-.0415,0c-.0127-.1172-.0281-.197-.13-.2378a.3648.3648,0,0,0-.1494-.0289.8635.8635,0,0,0-.0924.0061v.3584a.5606.5606,0,0,0,.016.1622.1625.1625,0,0,0,.0824.0763.7172.7172,0,0,0,.1267.0094h.201a.3724.3724,0,0,0,.146-.0221.7279.7279,0,0,0,.2225-.2955.1027.1027,0,0,1,.0415-.006.0935.0935,0,0,1,.0382.0094v.3618C16.1253,13.9762,16.1031,13.98,16.0522,13.98Z"/><path d="M17.0177,14.011a.7758.7758,0,0,1-.3176-.0824.15.15,0,0,0-.0509-.0127.2839.2839,0,0,0-.1018.0543.0871.0871,0,0,1-.0791-.0416c0-.0288.0255-.1145.0255-.1681,0-.0315-.0094-.187-.0128-.2225a.0738.0738,0,0,1,.06-.0288h.0221a2.8743,2.8743,0,0,0,.1267.268.4258.4258,0,0,0,.3048.1427.2963.2963,0,0,0,.2225-.067.1921.1921,0,0,0,.0763-.1648.1756.1756,0,0,0-.0382-.1239.33.33,0,0,0-.1427-.1019c-.06-.0288-.2733-.0824-.349-.1239a.5522.5522,0,0,1-.19-.134.42.42,0,0,1-.0791-.2506.3913.3913,0,0,1,.3974-.3851l.0247.0012a.5065.5065,0,0,1,.327.0951.9366.9366,0,0,1,.08-.08.0733.0733,0,0,1,.073.0382,1.5244,1.5244,0,0,0-.0221.1869c0,.0348.0221.1809.0221.201a.1345.1345,0,0,1-.0542.0188.0969.0969,0,0,1-.0255-.0061c-.0382-.067-.073-.1775-.1146-.2378a.31.31,0,0,0-.2733-.1173.2252.2252,0,0,0-.2478.2V12.87a.2274.2274,0,0,0,.1682.201c.0569.0221.1266.0476.2063.0731a1.8574,1.8574,0,0,1,.2191.0824.3757.3757,0,0,1,.2251.3618.4441.4441,0,0,1-.4636.4239Z"/><path d="M15.0365,16.1316c-.4154,0-.6412-.0094-.6981-.0094h-.197c-.0509,0-.19.0094-.335.0094H13.724a.0579.0579,0,0,1-.0061-.0322.1742.1742,0,0,1,0-.0382.5562.5562,0,0,0,.21-.0442.4025.4025,0,0,0,.0442-.21v-.806c0-.1494-.0764-.1494-.2318-.1682a.1637.1637,0,0,1-.0061-.0348c0-.0094,0-.0322.0128-.0349H14.934c.0322,0,.0442,0,.0442.0322l.0188.3109a.0678.0678,0,0,1-.0382.0127.0925.0925,0,0,1-.0315,0,.6149.6149,0,0,0-.2064-.2378.2164.2164,0,0,0-.1206-.0349h-.34c-.0127,0-.0127,0-.0194.0543,0,.0315-.006.0951-.006.276v.1776h.0476a.6607.6607,0,0,0,.1554-.0161.2639.2639,0,0,0,.14-.0985.5977.5977,0,0,0,.0315-.1145.0838.0838,0,0,1,.0442-.0094.067.067,0,0,1,.0349.0094c0,.0569-.0128.1621-.0128.2954,0,.067.0061.2124.0061.2734a.05.05,0,0,1-.0382.0094.1627.1627,0,0,1-.0382,0c-.0127-.1173-.0315-.197-.13-.2379a.3705.3705,0,0,0-.1527-.0288.8787.8787,0,0,0-.0918.006v.3585a.4446.4446,0,0,0,.0187.1621.1343.1343,0,0,0,.0824.0764.69.69,0,0,0,.1267.0094h.1969a.3918.3918,0,0,0,.1495-.0221.756.756,0,0,0,.219-.2955.111.111,0,0,1,.0825,0v.3618C15.11,16.1282,15.0874,16.1316,15.0365,16.1316Z"/><path d="M17.0365,14.8271c-.1394.0067-.2607.0824-.2607.3048v.7049c0,.0288.0128.2285.0128.3048a.1438.1438,0,0,1-.057.0221.0919.0919,0,0,1-.0348-.0221l-.9682-1.0411.0094.213v.3839c0,.0288.006.1019.0127.1555a.174.174,0,0,0,.067.146.3539.3539,0,0,0,.1843.06.062.062,0,0,1,.0094.0315.0786.0786,0,0,1-.0128.0349h-.3551c-.06,0-.146.006-.2063.006h-.0443a.1277.1277,0,0,1,0-.0315.09.09,0,0,1,.0061-.0348.3355.3355,0,0,0,.2191-.0952.4582.4582,0,0,0,.0221-.1648V15.31c0-.0791,0-.1206-.0061-.197a.24.24,0,0,0-.0475-.1494.4987.4987,0,0,0-.067-.073.7865.7865,0,0,0-.1555-.067.1058.1058,0,0,1-.0093-.0315.0726.0726,0,0,1,.0093-.0349h.0349c.0288,0,.1775.0061.2921.0061h.067a.134.134,0,0,1,.0415.0288l.7176.7839c.0543.06.124.1393.1621.19V15.201a1.0279,1.0279,0,0,0-.006-.1588.3775.3775,0,0,0-.0415-.1461c-.0221-.0348-.1555-.0543-.2251-.067a.0922.0922,0,0,1-.0061-.0409.1068.1068,0,0,1,0-.0288h.0416c.067,0,.1748.0094.2412.0094.1648,0,.2157-.006.2981-.006h.0543a.0754.0754,0,0,1,.006.0348A.0622.0622,0,0,1,17.0365,14.8271Z"/><path d="M21.56,10.5257c-.134.006-.2606.0824-.2606.3049v.7048c0,.0281.0094.2285.0094.3048a.1348.1348,0,0,1-.0543.0222c-.0094,0-.0188-.0094-.0382-.0222l-.9681-1.0411.0127.213v.3839c0,.0288.006.1019.0094.1555a.1927.1927,0,0,0,.067.146.3727.3727,0,0,0,.1842.06.061.061,0,0,1,.0094.0315.1143.1143,0,0,1-.0094.0349h-.3584c-.06,0-.1427.006-.201.006h-.0442a.1351.1351,0,0,1-.0061-.0315.0673.0673,0,0,1,.0094-.0348.3353.3353,0,0,0,.2157-.0952.3947.3947,0,0,0,.0222-.1648v-.6928a.2628.2628,0,0,0-.0476-.1494.6176.6176,0,0,0-.067-.073.716.716,0,0,0-.1555-.067.282.282,0,0,1-.006-.0315.138.138,0,0,1,.006-.0349h.0382c.0255,0,.1749.0061.2888.0061h.067a.2048.2048,0,0,1,.0442.0288l.7176.7839c.0543.06.1239.1393.1621.19V10.9a1.3588,1.3588,0,0,0-.0093-.1588.3315.3315,0,0,0-.0416-.1461c-.0221-.0348-.1554-.0543-.2224-.067a.0965.0965,0,0,1-.0094-.0415.0584.0584,0,0,1,.006-.0288h.0409c.067,0,.1749.0093.2412.0093.1621,0,.2157-.0067.2981-.0067h.051a.0832.0832,0,0,1,.0093.0349A.071.071,0,0,1,21.56,10.5257Z"/><path d="M22.9847,11.658a.6821.6821,0,0,1-.9645.013l-.0036-.0036a.76.76,0,0,1,0-1.0412.6828.6828,0,0,1,.4824-.2064.7367.7367,0,0,1,.3618.1019.7191.7191,0,0,1,.335.61A.76.76,0,0,1,22.9847,11.658Zm-.2224-1.005A.32.32,0,0,0,22.49,10.51a.2926.2926,0,0,0-.2539.1427.7924.7924,0,0,0-.1267.4858.8246.8246,0,0,0,.1206.479.3037.3037,0,0,0,.268.1521.3184.3184,0,0,0,.2982-.1869.89.89,0,0,0,.0891-.4416A.8.8,0,0,0,22.7623,10.653Z"/><path d="M24.9337,10.5324a.2775.2775,0,0,0-.2445.1621l-.5206,1.1585a.1.1,0,0,1-.0415.0187c-.0161,0-.0382-.0187-.0476-.0542s-.0764-.201-.2157-.5206l-.1649-.3779c-.06-.14-.1078-.2318-.1239-.2606a.2541.2541,0,0,0-.2191-.1267.0434.0434,0,0,1-.0127-.0348.0524.0524,0,0,1,.0093-.0348h.0858c.0951,0,.1776.006.2506.006.0857,0,.2285-.0094.3269-.0094H24.07c.0127,0,.0161.0221.0161.0322a.0877.0877,0,0,1-.006.0382c-.067.006-.2064,0-.2064.0924a.168.168,0,0,0,.0127.0764l.34.8127.2888-.67a.4582.4582,0,0,0,.0348-.1776c0-.0763-.0542-.1112-.1969-.1266a.114.114,0,0,1-.0061-.0321.1673.1673,0,0,1,.0061-.0416h.0415c.0636,0,.1273.0094.2734.0094.0221,0,.1239-.006.1715-.006h.0985a.0612.0612,0,0,1,0,.067Z"/><path d="M21.1121,13.04h-.0416a.6709.6709,0,0,0-.1018-.201.3186.3186,0,0,0-.2539-.134h-.134v1.0191c0,.1588.0763.1588.2412.1809a.0672.0672,0,0,1,.0093.0382.0662.0662,0,0,1-.006.0348h-.06c-.0985,0-.2888-.006-.3457-.006-.0416,0-.2506.0094-.3524.0094a.0665.0665,0,0,1-.0094-.0382.1575.1575,0,0,1,.006-.0348c.2191-.0161.2412-.057.2506-.1267V12.864a.8852.8852,0,0,0-.0094-.1682.981.981,0,0,0-.2157.0161.5393.5393,0,0,0-.2727.3015.1627.1627,0,0,1-.0382,0,.041.041,0,0,1-.0315-.0127v-.3524c0-.0322.006-.0416.0415-.0416h.6513c.3269,0,.5742-.0094.6345-.0094.0348,0,.0569,0,.067.0128s0,.0321,0,.0509v.3524A.04.04,0,0,1,21.1121,13.04Z"/><path d="M22.7562,13.98h-.11c-.067,0-.1494-.0093-.2318-.0093-.13,0-.2955.0093-.3585.0093a.0519.0519,0,0,1-.0094-.0348.1112.1112,0,0,1,.0061-.0322c.134-.006.1869-.0281.1869-.0824a.47.47,0,0,0-.0415-.1775c-.0416-.1018-.0637-.1461-.0731-.1715-.006-.0094-.0093-.0161-.0382-.0161h-.4321a.947.947,0,0,0-.1018.2633.301.301,0,0,0-.0094.0791c0,.0442.0415.0951.1936.0984a.0677.0677,0,0,1,.0094.0382.1186.1186,0,0,1,0,.0315h-.0382c-.1018,0-.13-.006-.2379-.006-.067,0-.2378.006-.2954.006a.0915.0915,0,0,1-.0061-.0288.0813.0813,0,0,1,.0061-.0348.2955.2955,0,0,0,.197-.1019,2.1788,2.1788,0,0,0,.1748-.3551c.0764-.1842.1682-.416.21-.5112.057-.1206.0764-.1588.0952-.201.0288-.06.06-.1206.073-.1427a.0844.0844,0,0,1,.0543-.0254.078.078,0,0,1,.06.0288.39.39,0,0,1,.0315.067c.08.19.1427.3584.2412.5936.0509.1172.0763.1936.13.3176.0382.0764.06.134.0985.2063.051.1046.134.1046.2158.1267,0,.0093.0127.0187.0127.0315A.0743.0743,0,0,1,22.7562,13.98Zm-.8669-1.0887h0c-.0288.0543-.08.1715-.0985.2224-.0731.1776-.0985.2379-.1112.2634h.4093C22.0548,13.2935,21.95,13.0429,21.8893,12.8908Z"/><path d="M24.8761,13.98l-.5554-.006h-.1521a.0979.0979,0,0,1-.0094-.0348.0437.0437,0,0,1,.0128-.0349.71.71,0,0,0,.134-.0127c.0569-.0255.079-.0824.079-.1648V12.738h0l-.2921.6412c-.0315.067-.067.1461-.1018.2225a2.858,2.858,0,0,0-.1206.3109.041.041,0,0,1-.0443.0254c-.0187,0-.0315-.006-.0415-.0382-.0382-.0824-.0637-.134-.0764-.1715l-.4569-1.005H23.242v.2573l.0094.6412c0,.197.1018.2887.2573.2887a.112.112,0,0,1,.0127.0315.0819.0819,0,0,1-.0094.0349h-.067c-.0255,0-.1206-.0094-.268-.0094h-.2854a.134.134,0,0,1-.0067-.0348.16.16,0,0,1,.0067-.0289.7113.7113,0,0,0,.201-.067c.0288-.0288.0543-.0857.0543-.2224v-.7015c0-.1112-.0161-.1554-.067-.1936a.681.681,0,0,0-.1809-.0349.0935.0935,0,0,1-.0094-.0381.1094.1094,0,0,1,.0094-.0382c.0542,0,.1494.006.2445.006h.335a.0827.0827,0,0,1,.0288.0348l.4094.9266.073-.1842c.0637-.1494.1555-.3745.2854-.6157.0288-.0543.0637-.124.0824-.1588l.5206-.0094a.0782.0782,0,0,1,.0128.0348.0735.0735,0,0,1-.0094.0349c-.057.0094-.1555.0094-.201.0891-.0161.0254-.0255.0509-.0255.1621v.6633c0,.254.0637.2794.0925.2982a.49.49,0,0,0,.1393.0187.0716.0716,0,0,1,.0094.0349C24.8862,13.9635,24.88,13.9668,24.8761,13.98Z"/><path d="M21.08,15.1922h-.0415a.67.67,0,0,0-.1019-.2009.319.319,0,0,0-.2539-.1341h-.134V15.879c0,.1588.0764.1588.2412.1809a.0907.0907,0,0,1,.0033.073h-.06c-.0984,0-.2887-.006-.3457-.006-.0415,0-.2506.0094-.3524.0094a.0673.0673,0,0,1-.0094-.0382.1637.1637,0,0,1,.0061-.0348c.219-.0161.2412-.057.25-.1267v-.9112a.8755.8755,0,0,0-.0093-.1681.9758.9758,0,0,0-.2158.016.5407.5407,0,0,0-.2733.3015.1627.1627,0,0,1-.0382,0,.04.04,0,0,1-.0315-.0127V14.807c0-.0322.006-.0415.0415-.0415h.6513c.3269,0,.5741-.0094.6344-.0094.0349,0,.057,0,.067.0127s0,.0322,0,.0509v.3525A.0406.0406,0,0,1,21.08,15.1922Z"/><path d="M22.7844,14.8331a.2775.2775,0,0,0-.2446.1622l-.5206,1.1584a.1.1,0,0,1-.0415.0188c-.0161,0-.0382-.0188-.0476-.0543s-.0763-.201-.2157-.5206L21.55,15.22c-.06-.1393-.1079-.2318-.124-.26a.2546.2546,0,0,0-.2191-.1267.0442.0442,0,0,1-.0127-.0348.053.053,0,0,1,.0094-.0348h.0857c.0952,0,.1776.006.2506.006.0858,0,.2285-.0094.327-.0094h.0543c.0127,0,.016.0221.016.0322a.0862.0862,0,0,1-.006.0382c-.067.006-.2064,0-.2064.0917a.168.168,0,0,0,.0128.0764l.34.8127.2887-.67a.46.46,0,0,0,.0349-.1775c0-.0764-.0543-.1112-.197-.1266a.11.11,0,0,1-.006-.0322.1531.1531,0,0,1,.006-.0415h.04c.0636,0,.1266.0093.2727.0093.0221,0,.1239-.006.1715-.006h.0985a.0609.0609,0,0,1,0,.067Z"/><path d="M24.9049,16.1316l-.552-.006h-.1555a.0819.0819,0,0,1-.006-.0349.0419.0419,0,0,1,.0094-.0348.7316.7316,0,0,0,.1393-.0128c.0543-.0254.0764-.0824.0764-.1648v-.99h-.006l-.2888.6412c-.0348.067-.067.146-.1045.2224-.0637.1494-.1019.2506-.1206.3109-.006.0254-.0282.0254-.0442.0254s-.0288-.006-.0416-.0381c-.0348-.0825-.06-.134-.073-.1716l-.46-1.005h-.0094v.2573l.0094.6412c0,.197.1018.2888.26.2888a.085.085,0,0,1,.0093.0315.0731.0731,0,0,1-.006.0348h-.073c-.0188,0-.1173-.0094-.2633-.0094h-.2854a.0709.0709,0,0,1-.0094-.0348.073.073,0,0,1,.0094-.0288.7443.7443,0,0,0,.201-.067.3273.3273,0,0,0,.0509-.2225V15.06c0-.1112-.0128-.1554-.067-.1936a.69.69,0,0,0-.1776-.0349.067.067,0,0,1-.0127-.0382.0779.0779,0,0,1,.0127-.0382c.0509,0,.1494.0061.2412.0061h.335a.0763.0763,0,0,1,.0255.0348l.4094.9266.0763-.1842a6.1777,6.1777,0,0,1,.2855-.6158c.0254-.0542.0636-.1239.0824-.1587l.5172-.0094c.006.0127.0161.0221.0161.0348a.0786.0786,0,0,1-.0128.0349c-.0542.0093-.152.0093-.201.0891-.016.0254-.0288.0509-.0288.1621v.6633c0,.2539.0637.2794.0952.2982a.4465.4465,0,0,0,.134.0187.0541.0541,0,0,1,.0127.0349A.0487.0487,0,0,1,24.9049,16.1316Z"/><path d="M175.9256,7.8913a.5553.5553,0,0,0-.0523-.2479h-.406c-.8871,0-1.4525.0348-3.0491.0348-.5494,0-1.3648-.0348-1.5585-.0348h-.46c-.0543.0348-.0711.2318-.0711.3015a.4694.4694,0,0,0,.0871.3015,7.4379,7.4379,0,0,1,1.8251.5138,3.4487,3.4487,0,0,1,.5159,1.809c.0161.2634.0335.53.0335,1.257v3.7044a7.0991,7.0991,0,0,1-.0335.7618c-.3028-.335-.7269-.9742-1.4365-1.7715l-5.9181-6.558a1.1562,1.1562,0,0,0-.268-.2284c-.1427,0-.3906-.0188-.53-.0188-1.139,0-3.19-.0509-3.4921-.0509a.6528.6528,0,0,0-.071.2445,2.9486,2.9486,0,0,0,.0523.34,2.4311,2.4311,0,0,1,1.33.67,5.9589,5.9589,0,0,1,.938,1.1176,1.54,1.54,0,0,1,.0717.5648c0,.9206-.0543,2.2157-.0543,3.4539v3.6a7.8405,7.8405,0,0,1-.1045,1.346,3.6847,3.6847,0,0,1-1.86.9018,1.0293,1.0293,0,0,0-.067.3209c0,.0543.0161.2319.0509.2473h.335c.3551,0,1.1712-.0543,1.7011-.0543.7806,0,1.3112.0543,2.0382.0543h1.0633c.067-.0161.0891-.2318.0891-.3015a.8145.8145,0,0,0-.0543-.2828,3.4092,3.4092,0,0,1-2.1266-1.0981,10.0884,10.0884,0,0,1-.2284-2.2c0-.5648-.0188-1.34-.0188-2.39,0-1.4.0188-2.6217.0369-3.2408.1065.124.23.2828.3189.3873l8.186,9.1991a1.03,1.03,0,0,0,.4952.1045.4251.4251,0,0,0,.2123-.0348,2.0408,2.0408,0,0,0,.1588-.7967c0-.5139-.0174-1.0479-.0174-1.3112V11.116c0-2.2157,1.0459-2.8348,2.268-2.8884a.755.755,0,0,0,.067-.335m-20.301,5.634c0,2.676-.7444,5.0344-1.7541,5.8659a2.872,2.872,0,0,1-1.876.6378,2.6558,2.6558,0,0,1-2.355-1.1872,9.43,9.43,0,0,1-1.0459-4.6056c0-2.4663.6365-4.3965,1.7715-5.3359a2.8233,2.8233,0,0,1,1.8425-.6887,2.9538,2.9538,0,0,1,2.412,1.222,6.85,6.85,0,0,1,1.01,4.0917m3.2059.335a5.9408,5.9408,0,0,0-3.1537-5.5107,6.8494,6.8494,0,0,0-3.3661-.9045,7.2143,7.2143,0,0,0-5.9723,3.2977,6.7669,6.7669,0,0,0-1.0251,3.5772,6.6059,6.6059,0,0,0,2.5332,5.1931,6.649,6.649,0,0,0,4.0408,1.273,7.3354,7.3354,0,0,0,2.6921-.5112,6.3816,6.3816,0,0,0,2.4629-1.6857,6.8407,6.8407,0,0,0,1.7889-4.7295M143.2584,11.63V8.0119c0-.268-.1045-.335-.3711-.335-.532,0-3.33.067-6.164.067-2.1983,0-4.0234-.0349-5.015-.0349h-1.3125c-.2285,0-.3.0543-.3.3015v3.3842a.5139.5139,0,0,0,.2841.073,1.3487,1.3487,0,0,0,.3886-.0382,5.99,5.99,0,0,1,2.479-2.9587c.53-.0509,1.5745-.067,1.8586-.067.0174.1936.0362.8154.0522,1.5584.0188,1.273.0188,1.8251.0188,4.8374,0,2.6063-.0188,3.7741-.0543,4.0569-.067.4951.0188.871-2.1078.9587a1.01,1.01,0,0,0-.0542.4061,1.409,1.409,0,0,0,.0187.2827h.6854c.6573,0,2.1983-.067,2.8374-.067.5126,0,2.1615.0543,3.2408.0543h.4952a.8907.8907,0,0,0,.0542-.3712.66.66,0,0,0-.067-.3209,3.6732,3.6732,0,0,1-1.8251-.335,5.4146,5.4146,0,0,1-.16-1.33c-.0174-1.9108-.0362-2.6378-.0362-3.9141,0-1.6476.0188-2.7644.0188-5.829.2472,0,.8154-.0161,1.346,0a3.4711,3.4711,0,0,1,2.1092,1.346,8.9228,8.9228,0,0,1,.938,1.933.9033.9033,0,0,0,.3015.0348.9542.9542,0,0,0,.335-.067m-15.2713,5.758a3.9022,3.9022,0,0,0-.0188-.5139.3956.3956,0,0,0-.268-.0543,1.491,1.491,0,0,0-.3906.0349,6.7659,6.7659,0,0,1-1.947,2.7014,2.701,2.701,0,0,1-1.33.197h-1.4505a6.53,6.53,0,0,1-1.17-.0891c-.268-.0543-.5494-.48-.67-.7618a1.86,1.86,0,0,1-.197-1.1176V13.9159h.6573a2.7917,2.7917,0,0,1,1.0793.2472,1.6381,1.6381,0,0,1,.798.7457,6.099,6.099,0,0,1,.3,1.47,1.2611,1.2611,0,0,0,.4636.067.6261.6261,0,0,0,.3524-.0891c0-.479-.1065-1.7715-.1065-2.479,0-.8857.1239-2.1078.1762-2.7423a.7137.7137,0,0,0-.3524-.073,1.2939,1.2939,0,0,0-.46.0542c-.0543.2479-.2492.99-.2854,1.0446a2.1484,2.1484,0,0,1-1.206.9239,4.7715,4.7715,0,0,1-1.0285.1394h-.3712V11.5763c0-1.7012.0349-2.2506.0523-2.5708.0174-.21.0523-.4416.071-.603a7.3172,7.3172,0,0,1,1.0633-.0349c1.0251,0,1.5062.0161,1.665.0161a2.0252,2.0252,0,0,1,1.135.3551,7.517,7.517,0,0,1,1.7,2.1969,1.4107,1.4107,0,0,0,.3732.0349c.1066,0,.124-.0349.268-.1045,0-1.0828-.073-2.479-.1078-2.9232-.0188-.1776-.0523-.2319-.4061-.2319-.1427,0-.8153-.0348-1.5235-.0348-1.01,0-1.4191.0188-2.9614.0188-.8315,0-2.5507.016-3.2777.016-1.0619,0-1.9664-.0348-2.4267-.0348h-.603a.574.574,0,0,0-.0871.2827.7961.7961,0,0,0,.0871.3558,8.9994,8.9994,0,0,1,1.2951.1936,1.4567,1.4567,0,0,1,.6365,1.1524c.0362.3746.0543,1.4.0543,2.2157v3.65c0,.743-.0175,1.8251-.0369,2.2666a5.1224,5.1224,0,0,1-.3872,1.6857,4.6806,4.6806,0,0,1-1.5966.2633,1.0724,1.0724,0,0,0-.0892.3906.685.685,0,0,0,.0892.32h.5842c.5682,0,2.6585-.0543,3.1376-.0543.4429,0,1.2938.0349,2.32.0349.5668,0,2.2331.1078,5.8123.1078a1.5031,1.5031,0,0,0,.4777-.0382.5365.5365,0,0,0,.0717-.2827c.0361-.3558.0361-1.4.0361-2.8348m-14.9885.6191a.5909.5909,0,0,0-.603-.4254c-.0369,0-.0905.0187-.124.0187a4.1831,4.1831,0,0,1-3.563,2.073,3.8812,3.8812,0,0,1-3.5792-2.34,9.7179,9.7179,0,0,1-.5494-3.2254,7.8213,7.8213,0,0,1,.5313-3.1014c.7792-2.0536,1.9129-2.6914,3.2964-2.6914a3.6307,3.6307,0,0,1,2.8348,1.5932,7.9542,7.9542,0,0,1,.9018,2.144,1.8911,1.8911,0,0,0,.3906.0509.8616.8616,0,0,0,.4255-.1587c-.0161-.1937-.1937-1.5585-.1937-1.9839,0-.53.1414-1.4.1414-1.7367a1.4121,1.4121,0,0,0-.69-.1936,3.4714,3.4714,0,0,0-.603.727,5.823,5.823,0,0,0-3.9329-1.26,6.0442,6.0442,0,0,0-4.4488,1.7554,6.7274,6.7274,0,0,0-1.8947,4.9962,6.4794,6.4794,0,0,0,2.4984,5.2977,7.06,7.06,0,0,0,4.1279,1.1872,5.5011,5.5011,0,0,0,4.5359-1.8947,3.7127,3.7127,0,0,0,.4984-.8349M99.2006,7.8852a.58.58,0,0,0-.0543-.2479h-.4094c-.8857,0-1.4505.0349-3.0471.0349-.5494,0-1.3648-.0349-1.5584-.0349h-.46c-.0543.0349-.0731.2319-.0731.3015A.4593.4593,0,0,0,93.69,8.24a7.52,7.52,0,0,1,1.8251.5139,3.4842,3.4842,0,0,1,.5112,1.809c.0188.2633.0382.53.0382,1.2569v3.7045a6.06,6.06,0,0,1-.0382.7618c-.2981-.335-.7269-.9742-1.4345-1.7715l-5.91-6.558a1.1748,1.1748,0,0,0-.268-.2285c-.1414,0-.3906-.0187-.53-.0187-1.139,0-3.19-.0509-3.492-.0509a.6462.6462,0,0,0-.067.2445,2.9267,2.9267,0,0,0,.0509.34,2.4262,2.4262,0,0,1,1.33.67,5.8593,5.8593,0,0,1,.938,1.1176,1.54,1.54,0,0,1,.0711.5648c0,.9206-.0523,2.2157-.0523,3.4538v3.6a7.7827,7.7827,0,0,1-.1079,1.3461,3.68,3.68,0,0,1-1.86.9018,1.0819,1.0819,0,0,0-.067.3209c0,.0543.0161.2318.0523.2473h.335c.3537,0,1.17-.0543,1.7011-.0543.7792,0,1.3092.0543,2.0361.0543H89.81c.067-.0161.0877-.2319.0877-.3016a.8275.8275,0,0,0-.0529-.2827,3.4031,3.4031,0,0,1-2.12-1.0981,10.178,10.178,0,0,1-.23-2.2c0-.5648-.0187-1.34-.0187-2.39,0-1.4.0187-2.6217.0368-3.2408.1065.1239.23.2827.3189.3872l8.1787,9.2038a1.033,1.033,0,0,0,.4951.1046.4176.4176,0,0,0,.2124-.0349,2.04,2.04,0,0,0,.1588-.7966c0-.5139-.0194-1.0479-.0194-1.3112V11.116c0-2.2157,1.0478-2.8348,2.2693-2.8884a.7589.7589,0,0,0,.073-.335M81.6807,20.167a1.189,1.189,0,0,0-.0522-.3524,13.1845,13.1845,0,0,1-1.3112-.1588,2.7847,2.7847,0,0,1-.603-1.3648c-.0174-.8509-.0369-2.6063-.0369-4.2538V9.6822a1.4109,1.4109,0,0,1,.321-.9588,3.0463,3.0463,0,0,1,1.5778-.46,1.11,1.11,0,0,0,.0523-.335.5251.5251,0,0,0-.0891-.2827h-.5139c-.7444,0-2.479.0891-3.082.0891-.3712,0-2.1078-.0543-2.8871-.067h-.3886a.4226.4226,0,0,0-.0891.2981,2.165,2.165,0,0,0,.0349.335,3.7173,3.7173,0,0,1,1.3822.2506,1.9546,1.9546,0,0,1,.5849,1.4988c.0161.335.0335,1.0633.0509,2.6954.0194.8857.0369,2.1232.0369,3.149,0,.5139-.0369,1.6663-.0543,2.2854a3.0329,3.0329,0,0,1-.2459,1.0633c-.2124.1775-.4268.4951-1.7206.5842a1.368,1.368,0,0,0-.0542.3745c0,.1394.0368.21.0368.2982h.3015c.71,0,2.479-.0891,3.4009-.0891.268,0,2.1079.0542,2.6934.0542h.5856a.712.712,0,0,0,.067-.3015m-14.21-9.2426a2.761,2.761,0,0,1-1.608,2.5681,5.9322,5.9322,0,0,1-1.4539.1427,3.9918,3.9918,0,0,1-.6573-.0382L63.7321,12.09V8.8306a.5639.5639,0,0,1,.1065-.3906,1.7679,1.7679,0,0,1,.7457-.1045c1.3809,0,1.9839.1206,2.479.9554a3.1562,3.1562,0,0,1,.4054,1.63m5.1376,9.2654a.8652.8652,0,0,0-.0892-.3712,2.7092,2.7092,0,0,1-1.1678-.2318,3.5944,3.5944,0,0,1-.3015-.4442,19.1865,19.1865,0,0,0-.7618-2.0348,6.6958,6.6958,0,0,0-1.3112-2.11,5.6472,5.6472,0,0,0-1.33-.5842c-.2827-.1045-.5126-.1936-.7256-.2828a5.5472,5.5472,0,0,1,.7256-.1045,3.1636,3.1636,0,0,0,1.949-.6572A2.7914,2.7914,0,0,0,70.6921,11.06a3.4051,3.4051,0,0,0-2.211-3.2248,8.6968,8.6968,0,0,0-2.1253-.1936c-1.33,0-3.19.124-4.0756.124-.268,0-1.809-.0349-2.4281-.0349-.268,0-.938-.0348-1.0445-.0348a1.0176,1.0176,0,0,0-.0884.335,1.9708,1.9708,0,0,0,.0348.3176c.3015.0348.8509.1045,1.135.1588a2.0932,2.0932,0,0,1,.743.9587,44.966,44.966,0,0,1,.1065,4.5172c0,1.809.02,3.898-.067,4.5741a1.3491,1.3491,0,0,1-.7269,1.1838,9.1615,9.1615,0,0,1-1.01.124.8647.8647,0,0,0-.0891.3558,1.0961,1.0961,0,0,0,.067.2827c.2506,0,2.9614-.0509,3.5262-.0509,1.133,0,2.0917.0509,3.1014.0509a.7364.7364,0,0,0,.067-.268,1.1041,1.1041,0,0,0-.067-.3712c-.3551-.0348-.7966-.1393-.9916-.1775A1.3234,1.3234,0,0,1,63.785,18.43l-.016-4.0924a3.7026,3.7026,0,0,1,.46-.0188,1.8093,1.8093,0,0,1,.938.2828,3.4276,3.4276,0,0,1,1.4017,1.2951,10.78,10.78,0,0,1,1.1155,3.8089c.0523.3712.1937.6921.5313.727.1414.0188,1.0808.0543,1.7541.0543h2.5346a.49.49,0,0,0,.1045-.3015m-19.24-9.1777a2.9024,2.9024,0,0,1-.9031,2.2157,2.8807,2.8807,0,0,1-1.8445.479,5.8043,5.8043,0,0,1-.7618-.0348c-.1414-.0194-.2318-.0348-.2318-.1273l.0187-5.19a8.0886,8.0886,0,0,1,1.0285-.0891c1.206,0,1.949.3015,2.3028,1.0472a3.7713,3.7713,0,0,1,.3906,1.6984m3.17.0731a3.3893,3.3893,0,0,0-1.8954-3.082,8.76,8.76,0,0,0-3.1711-.4094c-1.3648,0-3.492.1079-4.428.1079-.6573,0-1.6489-.0731-2.1983-.0731a.6476.6476,0,0,0-.09.2828.8541.8541,0,0,0,.0542.3557c.335.1079.8858.1937,1.2409.2855a1.5128,1.5128,0,0,1,.4777,1.01c.0522.6191.0891,1.4.0891,2.747,0,3.7393-.0174,5.7044-.0717,6.1292a1.4988,1.4988,0,0,1-1.01,1.2569,9.9209,9.9209,0,0,1-1.0271.1776,1.88,1.88,0,0,0-.0369.3712.5.5,0,0,0,.0523.25c.5668,0,2.2331-.073,2.871-.073,1.5778,0,3.19.073,3.8437.073h.4443a.508.508,0,0,0,.0542-.2827.86.86,0,0,0-.0361-.3209,2.881,2.881,0,0,1-1.665-.5682,1.506,1.506,0,0,1-.3558-1.0445l-.0542-3.8981c1.0632.067,2.1982.1045,2.8187.1045a6.65,6.65,0,0,0,2.0535-.3175,3.2461,3.2461,0,0,0,2.0381-3.082"/><path d="M176.21,27.6556c0-.1079-.067-.1427-.1065-.2131-.727,0-1.6824.0543-2.0556.0543-.9031,0-2.0013-.073-2.479-.073-.0543.1078-.0717.1239-.0717.213a.625.625,0,0,0,.0369.2124c.5139.1045,1.2569.2318,1.4.48a1.28,1.28,0,0,1,.16.6888,1.7271,1.7271,0,0,1-.1079.6573c-.1587.4415-.4951,1.1329-.9728,2.1078-.8154,1.6475-1.33,2.676-1.614,3.082-.46-.7779-1.4874-2.8314-1.7347-3.3648l-.9936-2.1614a1.6425,1.6425,0,0,1-.067-.48,1.1818,1.1818,0,0,1,.067-.46c.16-.3176.71-.3524,1.4539-.4442a.7733.7733,0,0,0,.0523-.2633c0-.124-.0523-.0891-.1065-.1776h-.3176c-1.1886,0-.8348.0543-2.873.0543-.8663,0-1.9128-.0543-2.0535-.0543-.071.124-.1079.1428-.1079.2681a.38.38,0,0,0,.073.2123c1.1859.2828,1.541.4952,1.665.727l3.1014,6.0756a6.9977,6.9977,0,0,1,.5668,1.33,9.8531,9.8531,0,0,1,.1427,2.1239,1.5106,1.5106,0,0,1-.5681,1.3681,8.4906,8.4906,0,0,1-1.4171.2285.4207.4207,0,0,0-.09.2472.7515.7515,0,0,0,.0542.2131c.9045,0,1.8446-.0188,2.3745-.0188.3725,0,.938.0188,1.9852.0382.603.0161,1.062.0349,1.3809.0349a.5256.5256,0,0,0,.09-.2318.3884.3884,0,0,0-.0731-.2285,4.2422,4.2422,0,0,1-1.541-.3551,1.36,1.36,0,0,1-.4616-1.133l-.1414-2.66a.9773.9773,0,0,1,.0717-.4221,2.6673,2.6673,0,0,1,.1916-.4985l2.73-5.4029a3.6646,3.6646,0,0,1,1.135-1.1872,4.9744,4.9744,0,0,1,1.1524-.3558.65.65,0,0,0,.067-.2284m-14.3139,3.65v-3.44c0-.268-.1078-.335-.3732-.335-.5313,0-2.9774.067-5.8122.067-2.1983,0-3.6676-.0349-4.6612-.0349h-1.3092c-.23,0-.3028.051-.3028.3015v3.206a.313.313,0,0,0,.2124.067.4592.4592,0,0,0,.2144-.0348c.69-1.541,1.0445-2.3551,2.2331-2.9581.53-.0543,2.39-.067,2.674-.067.0174.1936.0368.8127.0542,1.5584.0174,1.273.0174,1.9651.0174,4.9808,0,2.603-.0174,3.9483-.0542,4.2311-.067.4984.0187.871-2.1078.9587a.5644.5644,0,0,0-.0543.3015.8153.8153,0,0,0,.0188.2124h.69c.6552,0,1.5222-.073,2.1614-.073.5125,0,1.4887.0543,2.5694.0543h.4952a.4692.4692,0,0,0,.0542-.2634.4068.4068,0,0,0-.071-.2505,3.646,3.646,0,0,1-1.8251-.335,5.4073,5.4073,0,0,1-.16-1.3266c-.0161-1.9142-.0349-2.8187-.0349-4.0951,0-1.6475.0188-2.9044.0188-5.97.2479,0,1.5584-.0161,2.0917,0a3.1911,3.1911,0,0,1,2,1.346,5.6824,5.6824,0,0,1,.7966,1.9329.7066.7066,0,0,0,.268.0349.3359.3359,0,0,0,.197-.067m-14.7232,8.7475a.5707.5707,0,0,0-.0543-.2479c-.2633-.0188-.99-.0891-1.3112-.1588a2.8007,2.8007,0,0,1-.603-1.3648c-.0174-.8509-.0368-2.7805-.0368-4.4314V29.3567a1.4215,1.4215,0,0,1,.3189-.9587,3.0213,3.0213,0,0,1,1.5805-.459.5238.5238,0,0,0,.0543-.2285.3039.3039,0,0,0-.0878-.213h-.5126c-.7457,0-1.809.0857-2.412.0857-.3711,0-1.4344-.0509-2.211-.067h-.3906a.2542.2542,0,0,0-.0871.2285,1.2189,1.2189,0,0,0,.0349.2318,3.8228,3.8228,0,0,1,1.3822.2479,1.9644,1.9644,0,0,1,.5856,1.5075c.0174.335.0335,1.2409.0509,2.87.0187.8858.0362,2.0918.0362,3.1169,0,.5172-.0362,1.8445-.0543,2.4629a3.0143,3.0143,0,0,1-.2459,1.0633c-.2144.1775-.4268.4951-1.7206.5869a.7094.7094,0,0,0-.0522.2633c0,.1427.0335.1427.0335.2318h.3035c.7095,0,1.809-.0891,2.7282-.0891.268,0,1.4345.0509,2.0221.0509h.5822a.4266.4266,0,0,0,.0717-.2284M138.421,36.8a3.2829,3.2829,0,0,0-2.0013-3.1169,9.9078,9.9078,0,0,0-1.9664-.7109,12.8477,12.8477,0,0,1-2.57-.9741,2.1233,2.1233,0,0,1-1.0458-1.93,2.3469,2.3469,0,0,1,2.4984-2.073,2.9714,2.9714,0,0,1,2.4281,1.2382,9.0391,9.0391,0,0,1,1.0981,2.022.6981.6981,0,0,0,.1776.0349.5783.5783,0,0,0,.3906-.1776,13.8916,13.8916,0,0,1-.1414-1.5932,9.2419,9.2419,0,0,1,.16-1.3836.5462.5462,0,0,0-.536-.2479,3.9432,3.9432,0,0,0-.6921.6379,4.4272,4.4272,0,0,0-3.011-1.0982,3.4671,3.4671,0,0,0-3.7379,3.3842,3.5506,3.5506,0,0,0,.6539,1.949,3.87,3.87,0,0,0,1.7206,1.2951c.5125.21,2.814.9045,3.1342,1.0285,1.4171.5494,1.95,1.0251,1.95,2.282a2.7636,2.7636,0,0,1-.7812,1.79,2.469,2.469,0,0,1-1.9665.8349,3.977,3.977,0,0,1-2.9775-1.3112A8.447,8.447,0,0,1,130,36.2865a.61.61,0,0,0-.2472-.0348.6279.6279,0,0,0-.335.1045c0,.2318.0717,1.4.0717,1.7554a7.3965,7.3965,0,0,1-.195,1.5779.676.676,0,0,0,.5682.3557,2.4974,2.4974,0,0,1,.8857-.5681.8247.8247,0,0,1,.4221.1588,5.1152,5.1152,0,0,0,2.9614.8857c2.4985,0,4.288-1.2569,4.288-3.7205m-15.678-6.1138a2.8663,2.8663,0,0,1-1.9476,2.6412,9.5508,9.5508,0,0,1-1.8439.1427,10.739,10.739,0,0,1-1.0807-.0382l-.0174-1.5584v-3.35c0-.2318.0542-.3551.1239-.406a5.7231,5.7231,0,0,1,1.2395-.1079c1.665,0,2.4281.1588,3.0311,1.0284a2.7891,2.7891,0,0,1,.4951,1.6476m3.72,9.3893a.469.469,0,0,0-.0871-.2633,2.72,2.72,0,0,1-1.1712-.2318,3.9692,3.9692,0,0,1-.3-.4408,22.6881,22.6881,0,0,0-.7444-2.2157,6.6139,6.6139,0,0,0-1.3112-2.1079,4.7313,4.7313,0,0,0-1.273-.5842c-.2827-.1079-.5139-.197-.7269-.2854a7.0084,7.0084,0,0,1,.7269-.1045,3.2471,3.2471,0,0,0,1.876-.6573A2.8141,2.8141,0,0,0,124.619,30.9a3.3767,3.3767,0,0,0-2.211-3.2059,8.7119,8.7119,0,0,0-2.1266-.1937c-1.3286,0-2.3222.1206-3.2079.1206-.2633,0-1.133-.0348-1.7521-.0348-.268,0-.938-.0348-1.0458-.0348-.0523.1239-.0885.1621-.0885.2318a1.14,1.14,0,0,0,.0362.2472c.3.0349.8489.1045,1.133.1588a2.071,2.071,0,0,1,.7443.9588c.0871.5648.1066,2.1614.1066,4.66,0,1.809.0174,4.0756-.0731,4.749a1.34,1.34,0,0,1-.7256,1.1839,9.9917,9.9917,0,0,1-1.01.1266.4573.4573,0,0,0-.09.2479.7143.7143,0,0,0,.073.2124c.2472,0,2.2854-.0543,2.8522-.0543,1.135,0,1.4171.0543,2.4267.0543a.4336.4336,0,0,0,.0731-.197.505.505,0,0,0-.0731-.2633c-.3524-.0348-.7966-.1427-.9916-.1775a1.3287,1.3287,0,0,1-.76-1.26l-.0188-4.428c.1427-.0188.6553-.0188.7967-.0188a3.2828,3.2828,0,0,1,1.417.2506,3.97,3.97,0,0,1,1.738,1.4344,11.13,11.13,0,0,1,1.1176,3.86c.0509.3746.1936.6921.53.727a6.43,6.43,0,0,0,1.0285.0542h1.8411a.3006.3006,0,0,0,.1066-.2318m-14.8667-2.6914a4.64,4.64,0,0,0-.016-.5139.3952.3952,0,0,0-.268-.0542.4936.4936,0,0,0-.23.0382,4.69,4.69,0,0,1-1.825,2.7108,3.3371,3.3371,0,0,1-1.5049.1936h-1.9852a8.299,8.299,0,0,1-1.17-.0891c-.268-.0509-.5494-.4791-.67-.7618a2.2978,2.2978,0,0,1-.197-1.2221V33.642h.5682a3.4952,3.4952,0,0,1,1.5048.2506,2.13,2.13,0,0,1,.9568.7585,6.0671,6.0671,0,0,1,.2492,1.474.44.44,0,0,0,.2827.067.4115.4115,0,0,0,.2841-.0891c0-.4757-.1065-1.7715-.1065-2.479,0-.8858.1239-1.9678.1762-2.6063a.4585.4585,0,0,0-.2827-.067.5306.5306,0,0,0-.2841.0509c-.0523.2506-.195.9936-.2285,1.0472a2.5791,2.5791,0,0,1-1.3648.938,5.6426,5.6426,0,0,1-1.4539.1427h-.2827v-1.742c0-1.6985.0348-2.39.0509-2.7108.0188-.2131.0543-.4416.073-.603.1588-.0188.67-.0349,1.4888-.0349,1.0251,0,1.7889.0161,1.949.0161a1.9993,1.9993,0,0,1,1.133.3558,4.5091,4.5091,0,0,1,1.5778,2.1962.4884.4884,0,0,0,.2131.0349c.1045,0,.1239-.0349.2633-.1045,0-1.0828-.067-2.3042-.1045-2.747-.0188-.1776-.0543-.2285-.4081-.2285-.1413,0-.814-.0348-1.5222-.0348-1.0124,0-1.4191.016-2.9614.016-.8315,0-2.3014.0188-3.0284.0188-1.0633,0-1.2951-.0348-1.7567-.0348h-.603a.3585.3585,0,0,0-.09.21.4242.4242,0,0,0,.09.2505,8.9662,8.9662,0,0,1,1.3.1937c.2472.2124.4777.268.6378,1.1175.0348.3712.0543,1.5779.0543,2.3933v3.6475c0,.743-.0188,1.9677-.0369,2.412a5.3542,5.3542,0,0,1-.3906,1.7205,4.6822,4.6822,0,0,1-1.6013.2633.59.59,0,0,0-.09.2854.4223.4223,0,0,0,.09.2473h.5889c.57,0,1.9886-.0543,2.465-.0543.4442,0,1.0459.0348,2.077.0348.5668,0,2.2317.1079,5.8122.1079a1.4991,1.4991,0,0,0,.4777-.0348.5359.5359,0,0,0,.0717-.2828c.0335-.3557.0335-1.2254.0335-2.66m-13.132-9.6694c0-.073-.0187-.1776-.0891-.197h-.603c-.4254,0-1.0981.0348-1.4.0348-1.4345,0-1.949-.0891-2.1614-.0891h-.3176c-.0382.0891-.0924.1427-.0924.2319,0,.067.0381.1239.0381.1936a6.5975,6.5975,0,0,1,1.2221.268,1.6654,1.6654,0,0,1,.4442,1.1176,6.7154,6.7154,0,0,1-.4288,1.6126l-2.85,7.0149-3.5015-8.8781a1.33,1.33,0,0,1,.5816-.99,7.7822,7.7822,0,0,1,1.1484-.1427.65.65,0,0,0,.067-.2472c0-.067-.0161-.1776-.0891-.1937h-.4442c-.5427,0-1.3742.067-2.3142.067-.406,0-1.206-.0348-1.9839-.0348h-.69a.366.366,0,0,0-.067.2131.3833.3833,0,0,0,.0523.2124,6.147,6.147,0,0,1,1.4887.603,31.6349,31.6349,0,0,1,1.4539,3.2253l1.4667,3.5457c1.2187,2.9426,1.9429,4.9071,2.0347,5.2441.0892.0542,0,.1045.1588.1045s.1427-.0315.1776-.1206l4.5707-10.988a3.5236,3.5236,0,0,1,.6379-1.0124,2.8135,2.8135,0,0,1,1.4157-.5648.842.842,0,0,0,.073-.2285M82.9564,40.0586a.5456.5456,0,0,0-.0522-.2479,13.1332,13.1332,0,0,1-1.3126-.1588,2.828,2.828,0,0,1-.603-1.3647c-.016-.8509-.0335-2.78-.0335-4.4314V29.3567a1.407,1.407,0,0,1,.319-.9587,3.0143,3.0143,0,0,1,1.5758-.46.5252.5252,0,0,0,.0543-.2285.29.29,0,0,0-.0905-.2131h-.5125c-.7444,0-1.809.0858-2.412.0858-.37,0-1.4345-.0509-2.211-.067h-.3906a.2507.2507,0,0,0-.0892.2285,1.2351,1.2351,0,0,0,.0349.2318,3.807,3.807,0,0,1,1.3809.2479,1.9508,1.9508,0,0,1,.5875,1.5075c.0161.335.0349,1.2408.0523,2.87.0174.8857.0369,2.0917.0369,3.1168,0,.5173-.0369,1.8445-.0543,2.463a2.9712,2.9712,0,0,1-.2493,1.0632c-.211.1776-.4234.4952-1.7172.587a.68.68,0,0,0-.0542.2633c0,.1427.0361.1427.0361.2318h.3c.71,0,1.809-.0891,2.7282-.0891.268,0,1.4345.0509,2.0208.0509h.5855a.41.41,0,0,0,.067-.2285M74.9486,27.671a.2841.2841,0,0,0-.0543-.1749h-.406c-.8858,0-1.273.0349-2.87.0349-.5508,0-1.3648-.0349-1.5584-.0349h-.4637c-.0509.0349-.067.1588-.067.2285a.225.225,0,0,0,.0891.1936,7.6138,7.6138,0,0,1,1.8251.5139,3.5027,3.5027,0,0,1,.5139,1.809c.0161.2633.0348.53.0348,1.2569v5.2629a6.9706,6.9706,0,0,1-.0348.7618c-.3015-.335-.8161-.9936-1.5062-1.809l-6.767-7.9007a1.1689,1.1689,0,0,0-.268-.2318c-.1413,0-.3175-.0161-.46-.0161-1.1329,0-2.1252-.0542-2.428-.0542a.3522.3522,0,0,0-.051.1775,1.3358,1.3358,0,0,0,.0336.2285,3.1055,3.1055,0,0,1,1.3668.4985,5.1613,5.1613,0,0,1,.8663,1.0445,1.5459,1.5459,0,0,1,.073.5682c0,.9205-.0543,2.6029-.0543,3.8437V37.646a7.9654,7.9654,0,0,1-.1065,1.346,3.7182,3.7182,0,0,1-1.8619.9045.51.51,0,0,0-.067.213c0,.0543.016.1588.0522.1749h.335c.3538,0,1.17-.0509,1.7032-.0509.7778,0,1.1316.0509,1.8572.0509h1.0667c.0669-.0161.0857-.1588.0857-.2285a.3344.3344,0,0,0-.0523-.1775A3.4078,3.4078,0,0,1,63.65,38.78a10.4118,10.4118,0,0,1-.2318-2.2311c0-.5682-.0174-1.4888-.0174-2.5333,0-1.4.0174-3.3333.0361-3.953.1066.1239.2681.3176.3887.46l8.3991,9.8336a.2457.2457,0,0,0,.2144.1045c.0857,0,.0335,0,.1045-.0348a2.7161,2.7161,0,0,0,.0884-.7967c0-.5139-.0174-1.0445-.0174-1.3112V30.7919c0-2.2157,1.0459-2.8375,2.268-2.8884a.3979.3979,0,0,0,.067-.2318m-16.4077.0891a.3687.3687,0,0,0-.0871-.2285H57.942c-.5508,0-1.2951.0348-1.933.0348-.7082,0-1.5048-.0348-2.0207-.0348h-.6365a.4175.4175,0,0,0-.073.2285.6215.6215,0,0,0,.0543.2318c.073,0,1.3647.0161,1.5952.335a4.3588,4.3588,0,0,1,.69,1.3112,11.5628,11.5628,0,0,1,.1427,1.949c0,1.5048,0,2.5139-.0174,3.0472a9.5414,9.5414,0,0,1-.3209,2.355,3.2393,3.2393,0,0,1-3.4713,2.3048,4.8475,4.8475,0,0,1-2.077-.4442,2.9843,2.9843,0,0,1-1.7172-2.2318l-.09-5.3137-.0135-2.16c0-.4094.5126-.7812.6888-.9936a8.4074,8.4074,0,0,1,1.3648-.1776.5117.5117,0,0,0,.0891-.2472.2934.2934,0,0,0-.124-.2285l-.67.0161c-.6572.0188-1.5235.0349-2.0729.0349-.8509,0-1.5075-.0161-2.0382-.0161h-.7457a.2985.2985,0,0,0-.09.2479.28.28,0,0,0,.071.2124c.5648.067.938.1239,1.1872.1748a1.4921,1.4921,0,0,1,.62.7806c.0175.2318.0523.7966.0523,1.9142v4.2518a10.8889,10.8889,0,0,0,.1776,2.3745,3.4975,3.4975,0,0,0,1.541,2.1775,5.8,5.8,0,0,0,3.2421.8509,6.0965,6.0965,0,0,0,3.0471-.727,3.6294,3.6294,0,0,0,1.7521-2.355,8.1212,8.1212,0,0,0,.2841-2.1078v-3.403c0-.6378.0348-1.4351.0348-1.7554a3.5693,3.5693,0,0,1,.536-1.949,7.3316,7.3316,0,0,1,1.47-.2479.4347.4347,0,0,0,.067-.2124"/></svg>